%TF.GenerationSoftware,KiCad,Pcbnew,7.0.11*%
%TF.CreationDate,2026-01-19T17:47:09+08:00*%
%TF.ProjectId,iso_analog,69736f5f-616e-4616-9c6f-672e6b696361,rev?*%
%TF.SameCoordinates,Original*%
%TF.FileFunction,Legend,Top*%
%TF.FilePolarity,Positive*%
%FSLAX46Y46*%
G04 Gerber Fmt 4.6, Leading zero omitted, Abs format (unit mm)*
G04 Created by KiCad (PCBNEW 7.0.11) date 2026-01-19 17:47:09*
%MOMM*%
%LPD*%
G01*
G04 APERTURE LIST*
%ADD10C,0.150000*%
%ADD11C,0.200000*%
%ADD12C,0.100000*%
%ADD13C,0.120000*%
%ADD14C,0.300000*%
%ADD15C,0.381000*%
%ADD16C,0.304000*%
G04 APERTURE END LIST*
D10*
X132790476Y-64454819D02*
X132314286Y-64454819D01*
X132314286Y-64454819D02*
X132266667Y-64931009D01*
X132266667Y-64931009D02*
X132314286Y-64883390D01*
X132314286Y-64883390D02*
X132409524Y-64835771D01*
X132409524Y-64835771D02*
X132647619Y-64835771D01*
X132647619Y-64835771D02*
X132742857Y-64883390D01*
X132742857Y-64883390D02*
X132790476Y-64931009D01*
X132790476Y-64931009D02*
X132838095Y-65026247D01*
X132838095Y-65026247D02*
X132838095Y-65264342D01*
X132838095Y-65264342D02*
X132790476Y-65359580D01*
X132790476Y-65359580D02*
X132742857Y-65407200D01*
X132742857Y-65407200D02*
X132647619Y-65454819D01*
X132647619Y-65454819D02*
X132409524Y-65454819D01*
X132409524Y-65454819D02*
X132314286Y-65407200D01*
X132314286Y-65407200D02*
X132266667Y-65359580D01*
X133123810Y-64454819D02*
X133457143Y-65454819D01*
X133457143Y-65454819D02*
X133790476Y-64454819D01*
X134885715Y-65454819D02*
X134885715Y-64454819D01*
X135314286Y-65407200D02*
X135457143Y-65454819D01*
X135457143Y-65454819D02*
X135695238Y-65454819D01*
X135695238Y-65454819D02*
X135790476Y-65407200D01*
X135790476Y-65407200D02*
X135838095Y-65359580D01*
X135838095Y-65359580D02*
X135885714Y-65264342D01*
X135885714Y-65264342D02*
X135885714Y-65169104D01*
X135885714Y-65169104D02*
X135838095Y-65073866D01*
X135838095Y-65073866D02*
X135790476Y-65026247D01*
X135790476Y-65026247D02*
X135695238Y-64978628D01*
X135695238Y-64978628D02*
X135504762Y-64931009D01*
X135504762Y-64931009D02*
X135409524Y-64883390D01*
X135409524Y-64883390D02*
X135361905Y-64835771D01*
X135361905Y-64835771D02*
X135314286Y-64740533D01*
X135314286Y-64740533D02*
X135314286Y-64645295D01*
X135314286Y-64645295D02*
X135361905Y-64550057D01*
X135361905Y-64550057D02*
X135409524Y-64502438D01*
X135409524Y-64502438D02*
X135504762Y-64454819D01*
X135504762Y-64454819D02*
X135742857Y-64454819D01*
X135742857Y-64454819D02*
X135885714Y-64502438D01*
X136504762Y-64454819D02*
X136695238Y-64454819D01*
X136695238Y-64454819D02*
X136790476Y-64502438D01*
X136790476Y-64502438D02*
X136885714Y-64597676D01*
X136885714Y-64597676D02*
X136933333Y-64788152D01*
X136933333Y-64788152D02*
X136933333Y-65121485D01*
X136933333Y-65121485D02*
X136885714Y-65311961D01*
X136885714Y-65311961D02*
X136790476Y-65407200D01*
X136790476Y-65407200D02*
X136695238Y-65454819D01*
X136695238Y-65454819D02*
X136504762Y-65454819D01*
X136504762Y-65454819D02*
X136409524Y-65407200D01*
X136409524Y-65407200D02*
X136314286Y-65311961D01*
X136314286Y-65311961D02*
X136266667Y-65121485D01*
X136266667Y-65121485D02*
X136266667Y-64788152D01*
X136266667Y-64788152D02*
X136314286Y-64597676D01*
X136314286Y-64597676D02*
X136409524Y-64502438D01*
X136409524Y-64502438D02*
X136504762Y-64454819D01*
X169036779Y-76273866D02*
X169798684Y-76273866D01*
X130695238Y-80054819D02*
X131028571Y-81054819D01*
X131028571Y-81054819D02*
X131361904Y-80054819D01*
X132457143Y-81054819D02*
X132457143Y-80388152D01*
X132457143Y-80054819D02*
X132409524Y-80102438D01*
X132409524Y-80102438D02*
X132457143Y-80150057D01*
X132457143Y-80150057D02*
X132504762Y-80102438D01*
X132504762Y-80102438D02*
X132457143Y-80054819D01*
X132457143Y-80054819D02*
X132457143Y-80150057D01*
X132933333Y-80388152D02*
X132933333Y-81054819D01*
X132933333Y-80483390D02*
X132980952Y-80435771D01*
X132980952Y-80435771D02*
X133076190Y-80388152D01*
X133076190Y-80388152D02*
X133219047Y-80388152D01*
X133219047Y-80388152D02*
X133314285Y-80435771D01*
X133314285Y-80435771D02*
X133361904Y-80531009D01*
X133361904Y-80531009D02*
X133361904Y-81054819D01*
X117586779Y-57323866D02*
X118348684Y-57323866D01*
X117967731Y-57704819D02*
X117967731Y-56942914D01*
X132166666Y-59454819D02*
X132166666Y-60264342D01*
X132166666Y-60264342D02*
X132214285Y-60359580D01*
X132214285Y-60359580D02*
X132261904Y-60407200D01*
X132261904Y-60407200D02*
X132357142Y-60454819D01*
X132357142Y-60454819D02*
X132547618Y-60454819D01*
X132547618Y-60454819D02*
X132642856Y-60407200D01*
X132642856Y-60407200D02*
X132690475Y-60359580D01*
X132690475Y-60359580D02*
X132738094Y-60264342D01*
X132738094Y-60264342D02*
X132738094Y-59454819D01*
X133166666Y-59550057D02*
X133214285Y-59502438D01*
X133214285Y-59502438D02*
X133309523Y-59454819D01*
X133309523Y-59454819D02*
X133547618Y-59454819D01*
X133547618Y-59454819D02*
X133642856Y-59502438D01*
X133642856Y-59502438D02*
X133690475Y-59550057D01*
X133690475Y-59550057D02*
X133738094Y-59645295D01*
X133738094Y-59645295D02*
X133738094Y-59740533D01*
X133738094Y-59740533D02*
X133690475Y-59883390D01*
X133690475Y-59883390D02*
X133119047Y-60454819D01*
X133119047Y-60454819D02*
X133738094Y-60454819D01*
X135071428Y-60454819D02*
X134976190Y-60407200D01*
X134976190Y-60407200D02*
X134928571Y-60359580D01*
X134928571Y-60359580D02*
X134880952Y-60264342D01*
X134880952Y-60264342D02*
X134880952Y-59978628D01*
X134880952Y-59978628D02*
X134928571Y-59883390D01*
X134928571Y-59883390D02*
X134976190Y-59835771D01*
X134976190Y-59835771D02*
X135071428Y-59788152D01*
X135071428Y-59788152D02*
X135214285Y-59788152D01*
X135214285Y-59788152D02*
X135309523Y-59835771D01*
X135309523Y-59835771D02*
X135357142Y-59883390D01*
X135357142Y-59883390D02*
X135404761Y-59978628D01*
X135404761Y-59978628D02*
X135404761Y-60264342D01*
X135404761Y-60264342D02*
X135357142Y-60359580D01*
X135357142Y-60359580D02*
X135309523Y-60407200D01*
X135309523Y-60407200D02*
X135214285Y-60454819D01*
X135214285Y-60454819D02*
X135071428Y-60454819D01*
X136261904Y-59788152D02*
X136261904Y-60454819D01*
X135833333Y-59788152D02*
X135833333Y-60311961D01*
X135833333Y-60311961D02*
X135880952Y-60407200D01*
X135880952Y-60407200D02*
X135976190Y-60454819D01*
X135976190Y-60454819D02*
X136119047Y-60454819D01*
X136119047Y-60454819D02*
X136214285Y-60407200D01*
X136214285Y-60407200D02*
X136261904Y-60359580D01*
X136595238Y-59788152D02*
X136976190Y-59788152D01*
X136738095Y-59454819D02*
X136738095Y-60311961D01*
X136738095Y-60311961D02*
X136785714Y-60407200D01*
X136785714Y-60407200D02*
X136880952Y-60454819D01*
X136880952Y-60454819D02*
X136976190Y-60454819D01*
X154314285Y-80054819D02*
X154504761Y-80054819D01*
X154504761Y-80054819D02*
X154599999Y-80102438D01*
X154599999Y-80102438D02*
X154695237Y-80197676D01*
X154695237Y-80197676D02*
X154742856Y-80388152D01*
X154742856Y-80388152D02*
X154742856Y-80721485D01*
X154742856Y-80721485D02*
X154695237Y-80911961D01*
X154695237Y-80911961D02*
X154599999Y-81007200D01*
X154599999Y-81007200D02*
X154504761Y-81054819D01*
X154504761Y-81054819D02*
X154314285Y-81054819D01*
X154314285Y-81054819D02*
X154219047Y-81007200D01*
X154219047Y-81007200D02*
X154123809Y-80911961D01*
X154123809Y-80911961D02*
X154076190Y-80721485D01*
X154076190Y-80721485D02*
X154076190Y-80388152D01*
X154076190Y-80388152D02*
X154123809Y-80197676D01*
X154123809Y-80197676D02*
X154219047Y-80102438D01*
X154219047Y-80102438D02*
X154314285Y-80054819D01*
X155171428Y-80388152D02*
X155171428Y-81388152D01*
X155171428Y-80435771D02*
X155266666Y-80388152D01*
X155266666Y-80388152D02*
X155457142Y-80388152D01*
X155457142Y-80388152D02*
X155552380Y-80435771D01*
X155552380Y-80435771D02*
X155599999Y-80483390D01*
X155599999Y-80483390D02*
X155647618Y-80578628D01*
X155647618Y-80578628D02*
X155647618Y-80864342D01*
X155647618Y-80864342D02*
X155599999Y-80959580D01*
X155599999Y-80959580D02*
X155552380Y-81007200D01*
X155552380Y-81007200D02*
X155457142Y-81054819D01*
X155457142Y-81054819D02*
X155266666Y-81054819D01*
X155266666Y-81054819D02*
X155171428Y-81007200D01*
X155933333Y-80388152D02*
X156314285Y-80388152D01*
X156076190Y-80054819D02*
X156076190Y-80911961D01*
X156076190Y-80911961D02*
X156123809Y-81007200D01*
X156123809Y-81007200D02*
X156219047Y-81054819D01*
X156219047Y-81054819D02*
X156314285Y-81054819D01*
X156790476Y-81054819D02*
X156695238Y-81007200D01*
X156695238Y-81007200D02*
X156647619Y-80959580D01*
X156647619Y-80959580D02*
X156600000Y-80864342D01*
X156600000Y-80864342D02*
X156600000Y-80578628D01*
X156600000Y-80578628D02*
X156647619Y-80483390D01*
X156647619Y-80483390D02*
X156695238Y-80435771D01*
X156695238Y-80435771D02*
X156790476Y-80388152D01*
X156790476Y-80388152D02*
X156933333Y-80388152D01*
X156933333Y-80388152D02*
X157028571Y-80435771D01*
X157028571Y-80435771D02*
X157076190Y-80483390D01*
X157076190Y-80483390D02*
X157123809Y-80578628D01*
X157123809Y-80578628D02*
X157123809Y-80864342D01*
X157123809Y-80864342D02*
X157076190Y-80959580D01*
X157076190Y-80959580D02*
X157028571Y-81007200D01*
X157028571Y-81007200D02*
X156933333Y-81054819D01*
X156933333Y-81054819D02*
X156790476Y-81054819D01*
D11*
X158169673Y-78157219D02*
X158169673Y-77157219D01*
X158598244Y-78109600D02*
X158741101Y-78157219D01*
X158741101Y-78157219D02*
X158979196Y-78157219D01*
X158979196Y-78157219D02*
X159074434Y-78109600D01*
X159074434Y-78109600D02*
X159122053Y-78061980D01*
X159122053Y-78061980D02*
X159169672Y-77966742D01*
X159169672Y-77966742D02*
X159169672Y-77871504D01*
X159169672Y-77871504D02*
X159122053Y-77776266D01*
X159122053Y-77776266D02*
X159074434Y-77728647D01*
X159074434Y-77728647D02*
X158979196Y-77681028D01*
X158979196Y-77681028D02*
X158788720Y-77633409D01*
X158788720Y-77633409D02*
X158693482Y-77585790D01*
X158693482Y-77585790D02*
X158645863Y-77538171D01*
X158645863Y-77538171D02*
X158598244Y-77442933D01*
X158598244Y-77442933D02*
X158598244Y-77347695D01*
X158598244Y-77347695D02*
X158645863Y-77252457D01*
X158645863Y-77252457D02*
X158693482Y-77204838D01*
X158693482Y-77204838D02*
X158788720Y-77157219D01*
X158788720Y-77157219D02*
X159026815Y-77157219D01*
X159026815Y-77157219D02*
X159169672Y-77204838D01*
X159788720Y-77157219D02*
X159979196Y-77157219D01*
X159979196Y-77157219D02*
X160074434Y-77204838D01*
X160074434Y-77204838D02*
X160169672Y-77300076D01*
X160169672Y-77300076D02*
X160217291Y-77490552D01*
X160217291Y-77490552D02*
X160217291Y-77823885D01*
X160217291Y-77823885D02*
X160169672Y-78014361D01*
X160169672Y-78014361D02*
X160074434Y-78109600D01*
X160074434Y-78109600D02*
X159979196Y-78157219D01*
X159979196Y-78157219D02*
X159788720Y-78157219D01*
X159788720Y-78157219D02*
X159693482Y-78109600D01*
X159693482Y-78109600D02*
X159598244Y-78014361D01*
X159598244Y-78014361D02*
X159550625Y-77823885D01*
X159550625Y-77823885D02*
X159550625Y-77490552D01*
X159550625Y-77490552D02*
X159598244Y-77300076D01*
X159598244Y-77300076D02*
X159693482Y-77204838D01*
X159693482Y-77204838D02*
X159788720Y-77157219D01*
X161360149Y-77871504D02*
X161836339Y-77871504D01*
X161264911Y-78157219D02*
X161598244Y-77157219D01*
X161598244Y-77157219D02*
X161931577Y-78157219D01*
X162264911Y-77490552D02*
X162264911Y-78157219D01*
X162264911Y-77585790D02*
X162312530Y-77538171D01*
X162312530Y-77538171D02*
X162407768Y-77490552D01*
X162407768Y-77490552D02*
X162550625Y-77490552D01*
X162550625Y-77490552D02*
X162645863Y-77538171D01*
X162645863Y-77538171D02*
X162693482Y-77633409D01*
X162693482Y-77633409D02*
X162693482Y-78157219D01*
X163598244Y-78157219D02*
X163598244Y-77633409D01*
X163598244Y-77633409D02*
X163550625Y-77538171D01*
X163550625Y-77538171D02*
X163455387Y-77490552D01*
X163455387Y-77490552D02*
X163264911Y-77490552D01*
X163264911Y-77490552D02*
X163169673Y-77538171D01*
X163598244Y-78109600D02*
X163503006Y-78157219D01*
X163503006Y-78157219D02*
X163264911Y-78157219D01*
X163264911Y-78157219D02*
X163169673Y-78109600D01*
X163169673Y-78109600D02*
X163122054Y-78014361D01*
X163122054Y-78014361D02*
X163122054Y-77919123D01*
X163122054Y-77919123D02*
X163169673Y-77823885D01*
X163169673Y-77823885D02*
X163264911Y-77776266D01*
X163264911Y-77776266D02*
X163503006Y-77776266D01*
X163503006Y-77776266D02*
X163598244Y-77728647D01*
X164217292Y-78157219D02*
X164122054Y-78109600D01*
X164122054Y-78109600D02*
X164074435Y-78014361D01*
X164074435Y-78014361D02*
X164074435Y-77157219D01*
X164741102Y-78157219D02*
X164645864Y-78109600D01*
X164645864Y-78109600D02*
X164598245Y-78061980D01*
X164598245Y-78061980D02*
X164550626Y-77966742D01*
X164550626Y-77966742D02*
X164550626Y-77681028D01*
X164550626Y-77681028D02*
X164598245Y-77585790D01*
X164598245Y-77585790D02*
X164645864Y-77538171D01*
X164645864Y-77538171D02*
X164741102Y-77490552D01*
X164741102Y-77490552D02*
X164883959Y-77490552D01*
X164883959Y-77490552D02*
X164979197Y-77538171D01*
X164979197Y-77538171D02*
X165026816Y-77585790D01*
X165026816Y-77585790D02*
X165074435Y-77681028D01*
X165074435Y-77681028D02*
X165074435Y-77966742D01*
X165074435Y-77966742D02*
X165026816Y-78061980D01*
X165026816Y-78061980D02*
X164979197Y-78109600D01*
X164979197Y-78109600D02*
X164883959Y-78157219D01*
X164883959Y-78157219D02*
X164741102Y-78157219D01*
X165931578Y-77490552D02*
X165931578Y-78300076D01*
X165931578Y-78300076D02*
X165883959Y-78395314D01*
X165883959Y-78395314D02*
X165836340Y-78442933D01*
X165836340Y-78442933D02*
X165741102Y-78490552D01*
X165741102Y-78490552D02*
X165598245Y-78490552D01*
X165598245Y-78490552D02*
X165503007Y-78442933D01*
X165931578Y-78109600D02*
X165836340Y-78157219D01*
X165836340Y-78157219D02*
X165645864Y-78157219D01*
X165645864Y-78157219D02*
X165550626Y-78109600D01*
X165550626Y-78109600D02*
X165503007Y-78061980D01*
X165503007Y-78061980D02*
X165455388Y-77966742D01*
X165455388Y-77966742D02*
X165455388Y-77681028D01*
X165455388Y-77681028D02*
X165503007Y-77585790D01*
X165503007Y-77585790D02*
X165550626Y-77538171D01*
X165550626Y-77538171D02*
X165645864Y-77490552D01*
X165645864Y-77490552D02*
X165836340Y-77490552D01*
X165836340Y-77490552D02*
X165931578Y-77538171D01*
X167169674Y-78157219D02*
X167169674Y-77157219D01*
X167169674Y-77157219D02*
X167407769Y-77157219D01*
X167407769Y-77157219D02*
X167550626Y-77204838D01*
X167550626Y-77204838D02*
X167645864Y-77300076D01*
X167645864Y-77300076D02*
X167693483Y-77395314D01*
X167693483Y-77395314D02*
X167741102Y-77585790D01*
X167741102Y-77585790D02*
X167741102Y-77728647D01*
X167741102Y-77728647D02*
X167693483Y-77919123D01*
X167693483Y-77919123D02*
X167645864Y-78014361D01*
X167645864Y-78014361D02*
X167550626Y-78109600D01*
X167550626Y-78109600D02*
X167407769Y-78157219D01*
X167407769Y-78157219D02*
X167169674Y-78157219D01*
X168550626Y-78109600D02*
X168455388Y-78157219D01*
X168455388Y-78157219D02*
X168264912Y-78157219D01*
X168264912Y-78157219D02*
X168169674Y-78109600D01*
X168169674Y-78109600D02*
X168122055Y-78014361D01*
X168122055Y-78014361D02*
X168122055Y-77633409D01*
X168122055Y-77633409D02*
X168169674Y-77538171D01*
X168169674Y-77538171D02*
X168264912Y-77490552D01*
X168264912Y-77490552D02*
X168455388Y-77490552D01*
X168455388Y-77490552D02*
X168550626Y-77538171D01*
X168550626Y-77538171D02*
X168598245Y-77633409D01*
X168598245Y-77633409D02*
X168598245Y-77728647D01*
X168598245Y-77728647D02*
X168122055Y-77823885D01*
X168931579Y-77490552D02*
X169169674Y-78157219D01*
X169169674Y-78157219D02*
X169407769Y-77490552D01*
X158074435Y-79100552D02*
X158312530Y-79767219D01*
X158312530Y-79767219D02*
X158550625Y-79100552D01*
X159455387Y-79767219D02*
X158883959Y-79767219D01*
X159169673Y-79767219D02*
X159169673Y-78767219D01*
X159169673Y-78767219D02*
X159074435Y-78910076D01*
X159074435Y-78910076D02*
X158979197Y-79005314D01*
X158979197Y-79005314D02*
X158883959Y-79052933D01*
X159883959Y-79671980D02*
X159931578Y-79719600D01*
X159931578Y-79719600D02*
X159883959Y-79767219D01*
X159883959Y-79767219D02*
X159836340Y-79719600D01*
X159836340Y-79719600D02*
X159883959Y-79671980D01*
X159883959Y-79671980D02*
X159883959Y-79767219D01*
X160883958Y-79767219D02*
X160312530Y-79767219D01*
X160598244Y-79767219D02*
X160598244Y-78767219D01*
X160598244Y-78767219D02*
X160503006Y-78910076D01*
X160503006Y-78910076D02*
X160407768Y-79005314D01*
X160407768Y-79005314D02*
X160312530Y-79052933D01*
X162026816Y-78862457D02*
X162074435Y-78814838D01*
X162074435Y-78814838D02*
X162169673Y-78767219D01*
X162169673Y-78767219D02*
X162407768Y-78767219D01*
X162407768Y-78767219D02*
X162503006Y-78814838D01*
X162503006Y-78814838D02*
X162550625Y-78862457D01*
X162550625Y-78862457D02*
X162598244Y-78957695D01*
X162598244Y-78957695D02*
X162598244Y-79052933D01*
X162598244Y-79052933D02*
X162550625Y-79195790D01*
X162550625Y-79195790D02*
X161979197Y-79767219D01*
X161979197Y-79767219D02*
X162598244Y-79767219D01*
X163217292Y-78767219D02*
X163312530Y-78767219D01*
X163312530Y-78767219D02*
X163407768Y-78814838D01*
X163407768Y-78814838D02*
X163455387Y-78862457D01*
X163455387Y-78862457D02*
X163503006Y-78957695D01*
X163503006Y-78957695D02*
X163550625Y-79148171D01*
X163550625Y-79148171D02*
X163550625Y-79386266D01*
X163550625Y-79386266D02*
X163503006Y-79576742D01*
X163503006Y-79576742D02*
X163455387Y-79671980D01*
X163455387Y-79671980D02*
X163407768Y-79719600D01*
X163407768Y-79719600D02*
X163312530Y-79767219D01*
X163312530Y-79767219D02*
X163217292Y-79767219D01*
X163217292Y-79767219D02*
X163122054Y-79719600D01*
X163122054Y-79719600D02*
X163074435Y-79671980D01*
X163074435Y-79671980D02*
X163026816Y-79576742D01*
X163026816Y-79576742D02*
X162979197Y-79386266D01*
X162979197Y-79386266D02*
X162979197Y-79148171D01*
X162979197Y-79148171D02*
X163026816Y-78957695D01*
X163026816Y-78957695D02*
X163074435Y-78862457D01*
X163074435Y-78862457D02*
X163122054Y-78814838D01*
X163122054Y-78814838D02*
X163217292Y-78767219D01*
X163931578Y-78862457D02*
X163979197Y-78814838D01*
X163979197Y-78814838D02*
X164074435Y-78767219D01*
X164074435Y-78767219D02*
X164312530Y-78767219D01*
X164312530Y-78767219D02*
X164407768Y-78814838D01*
X164407768Y-78814838D02*
X164455387Y-78862457D01*
X164455387Y-78862457D02*
X164503006Y-78957695D01*
X164503006Y-78957695D02*
X164503006Y-79052933D01*
X164503006Y-79052933D02*
X164455387Y-79195790D01*
X164455387Y-79195790D02*
X163883959Y-79767219D01*
X163883959Y-79767219D02*
X164503006Y-79767219D01*
X165360149Y-78767219D02*
X165169673Y-78767219D01*
X165169673Y-78767219D02*
X165074435Y-78814838D01*
X165074435Y-78814838D02*
X165026816Y-78862457D01*
X165026816Y-78862457D02*
X164931578Y-79005314D01*
X164931578Y-79005314D02*
X164883959Y-79195790D01*
X164883959Y-79195790D02*
X164883959Y-79576742D01*
X164883959Y-79576742D02*
X164931578Y-79671980D01*
X164931578Y-79671980D02*
X164979197Y-79719600D01*
X164979197Y-79719600D02*
X165074435Y-79767219D01*
X165074435Y-79767219D02*
X165264911Y-79767219D01*
X165264911Y-79767219D02*
X165360149Y-79719600D01*
X165360149Y-79719600D02*
X165407768Y-79671980D01*
X165407768Y-79671980D02*
X165455387Y-79576742D01*
X165455387Y-79576742D02*
X165455387Y-79338647D01*
X165455387Y-79338647D02*
X165407768Y-79243409D01*
X165407768Y-79243409D02*
X165360149Y-79195790D01*
X165360149Y-79195790D02*
X165264911Y-79148171D01*
X165264911Y-79148171D02*
X165074435Y-79148171D01*
X165074435Y-79148171D02*
X164979197Y-79195790D01*
X164979197Y-79195790D02*
X164931578Y-79243409D01*
X164931578Y-79243409D02*
X164883959Y-79338647D01*
X166598244Y-78719600D02*
X165741102Y-80005314D01*
X167122054Y-78767219D02*
X167217292Y-78767219D01*
X167217292Y-78767219D02*
X167312530Y-78814838D01*
X167312530Y-78814838D02*
X167360149Y-78862457D01*
X167360149Y-78862457D02*
X167407768Y-78957695D01*
X167407768Y-78957695D02*
X167455387Y-79148171D01*
X167455387Y-79148171D02*
X167455387Y-79386266D01*
X167455387Y-79386266D02*
X167407768Y-79576742D01*
X167407768Y-79576742D02*
X167360149Y-79671980D01*
X167360149Y-79671980D02*
X167312530Y-79719600D01*
X167312530Y-79719600D02*
X167217292Y-79767219D01*
X167217292Y-79767219D02*
X167122054Y-79767219D01*
X167122054Y-79767219D02*
X167026816Y-79719600D01*
X167026816Y-79719600D02*
X166979197Y-79671980D01*
X166979197Y-79671980D02*
X166931578Y-79576742D01*
X166931578Y-79576742D02*
X166883959Y-79386266D01*
X166883959Y-79386266D02*
X166883959Y-79148171D01*
X166883959Y-79148171D02*
X166931578Y-78957695D01*
X166931578Y-78957695D02*
X166979197Y-78862457D01*
X166979197Y-78862457D02*
X167026816Y-78814838D01*
X167026816Y-78814838D02*
X167122054Y-78767219D01*
X168407768Y-79767219D02*
X167836340Y-79767219D01*
X168122054Y-79767219D02*
X168122054Y-78767219D01*
X168122054Y-78767219D02*
X168026816Y-78910076D01*
X168026816Y-78910076D02*
X167931578Y-79005314D01*
X167931578Y-79005314D02*
X167836340Y-79052933D01*
X169550625Y-78719600D02*
X168693483Y-80005314D01*
X170407768Y-79767219D02*
X169836340Y-79767219D01*
X170122054Y-79767219D02*
X170122054Y-78767219D01*
X170122054Y-78767219D02*
X170026816Y-78910076D01*
X170026816Y-78910076D02*
X169931578Y-79005314D01*
X169931578Y-79005314D02*
X169836340Y-79052933D01*
X170883959Y-79767219D02*
X171074435Y-79767219D01*
X171074435Y-79767219D02*
X171169673Y-79719600D01*
X171169673Y-79719600D02*
X171217292Y-79671980D01*
X171217292Y-79671980D02*
X171312530Y-79529123D01*
X171312530Y-79529123D02*
X171360149Y-79338647D01*
X171360149Y-79338647D02*
X171360149Y-78957695D01*
X171360149Y-78957695D02*
X171312530Y-78862457D01*
X171312530Y-78862457D02*
X171264911Y-78814838D01*
X171264911Y-78814838D02*
X171169673Y-78767219D01*
X171169673Y-78767219D02*
X170979197Y-78767219D01*
X170979197Y-78767219D02*
X170883959Y-78814838D01*
X170883959Y-78814838D02*
X170836340Y-78862457D01*
X170836340Y-78862457D02*
X170788721Y-78957695D01*
X170788721Y-78957695D02*
X170788721Y-79195790D01*
X170788721Y-79195790D02*
X170836340Y-79291028D01*
X170836340Y-79291028D02*
X170883959Y-79338647D01*
X170883959Y-79338647D02*
X170979197Y-79386266D01*
X170979197Y-79386266D02*
X171169673Y-79386266D01*
X171169673Y-79386266D02*
X171264911Y-79338647D01*
X171264911Y-79338647D02*
X171312530Y-79291028D01*
X171312530Y-79291028D02*
X171360149Y-79195790D01*
D10*
X164719048Y-80473866D02*
X165480953Y-80473866D01*
X169036779Y-58373866D02*
X169798684Y-58373866D01*
X169417731Y-58754819D02*
X169417731Y-57992914D01*
X117836779Y-67373866D02*
X118598684Y-67373866D01*
X118217731Y-67754819D02*
X118217731Y-66992914D01*
X170095238Y-70554819D02*
X170428571Y-71554819D01*
X170428571Y-71554819D02*
X170761904Y-70554819D01*
X172000000Y-71554819D02*
X171904762Y-71507200D01*
X171904762Y-71507200D02*
X171857143Y-71459580D01*
X171857143Y-71459580D02*
X171809524Y-71364342D01*
X171809524Y-71364342D02*
X171809524Y-71078628D01*
X171809524Y-71078628D02*
X171857143Y-70983390D01*
X171857143Y-70983390D02*
X171904762Y-70935771D01*
X171904762Y-70935771D02*
X172000000Y-70888152D01*
X172000000Y-70888152D02*
X172142857Y-70888152D01*
X172142857Y-70888152D02*
X172238095Y-70935771D01*
X172238095Y-70935771D02*
X172285714Y-70983390D01*
X172285714Y-70983390D02*
X172333333Y-71078628D01*
X172333333Y-71078628D02*
X172333333Y-71364342D01*
X172333333Y-71364342D02*
X172285714Y-71459580D01*
X172285714Y-71459580D02*
X172238095Y-71507200D01*
X172238095Y-71507200D02*
X172142857Y-71554819D01*
X172142857Y-71554819D02*
X172000000Y-71554819D01*
X173190476Y-70888152D02*
X173190476Y-71554819D01*
X172761905Y-70888152D02*
X172761905Y-71411961D01*
X172761905Y-71411961D02*
X172809524Y-71507200D01*
X172809524Y-71507200D02*
X172904762Y-71554819D01*
X172904762Y-71554819D02*
X173047619Y-71554819D01*
X173047619Y-71554819D02*
X173142857Y-71507200D01*
X173142857Y-71507200D02*
X173190476Y-71459580D01*
X173523810Y-70888152D02*
X173904762Y-70888152D01*
X173666667Y-70554819D02*
X173666667Y-71411961D01*
X173666667Y-71411961D02*
X173714286Y-71507200D01*
X173714286Y-71507200D02*
X173809524Y-71554819D01*
X173809524Y-71554819D02*
X173904762Y-71554819D01*
X170738095Y-55254819D02*
X170261905Y-55254819D01*
X170261905Y-55254819D02*
X170214286Y-55731009D01*
X170214286Y-55731009D02*
X170261905Y-55683390D01*
X170261905Y-55683390D02*
X170357143Y-55635771D01*
X170357143Y-55635771D02*
X170595238Y-55635771D01*
X170595238Y-55635771D02*
X170690476Y-55683390D01*
X170690476Y-55683390D02*
X170738095Y-55731009D01*
X170738095Y-55731009D02*
X170785714Y-55826247D01*
X170785714Y-55826247D02*
X170785714Y-56064342D01*
X170785714Y-56064342D02*
X170738095Y-56159580D01*
X170738095Y-56159580D02*
X170690476Y-56207200D01*
X170690476Y-56207200D02*
X170595238Y-56254819D01*
X170595238Y-56254819D02*
X170357143Y-56254819D01*
X170357143Y-56254819D02*
X170261905Y-56207200D01*
X170261905Y-56207200D02*
X170214286Y-56159580D01*
X171071429Y-55254819D02*
X171404762Y-56254819D01*
X171404762Y-56254819D02*
X171738095Y-55254819D01*
X172833334Y-56254819D02*
X172833334Y-55588152D01*
X172833334Y-55254819D02*
X172785715Y-55302438D01*
X172785715Y-55302438D02*
X172833334Y-55350057D01*
X172833334Y-55350057D02*
X172880953Y-55302438D01*
X172880953Y-55302438D02*
X172833334Y-55254819D01*
X172833334Y-55254819D02*
X172833334Y-55350057D01*
X173309524Y-55588152D02*
X173309524Y-56254819D01*
X173309524Y-55683390D02*
X173357143Y-55635771D01*
X173357143Y-55635771D02*
X173452381Y-55588152D01*
X173452381Y-55588152D02*
X173595238Y-55588152D01*
X173595238Y-55588152D02*
X173690476Y-55635771D01*
X173690476Y-55635771D02*
X173738095Y-55731009D01*
X173738095Y-55731009D02*
X173738095Y-56254819D01*
X119828571Y-72331009D02*
X120161904Y-72331009D01*
X120304761Y-72854819D02*
X119828571Y-72854819D01*
X119828571Y-72854819D02*
X119828571Y-71854819D01*
X119828571Y-71854819D02*
X120304761Y-71854819D01*
X120638095Y-71854819D02*
X121304761Y-72854819D01*
X121304761Y-71854819D02*
X120638095Y-72854819D01*
X121542857Y-71854819D02*
X122114285Y-71854819D01*
X121828571Y-72854819D02*
X121828571Y-71854819D01*
X120066667Y-77054819D02*
X120400000Y-78054819D01*
X120400000Y-78054819D02*
X120733333Y-77054819D01*
X121638095Y-78054819D02*
X121304762Y-77578628D01*
X121066667Y-78054819D02*
X121066667Y-77054819D01*
X121066667Y-77054819D02*
X121447619Y-77054819D01*
X121447619Y-77054819D02*
X121542857Y-77102438D01*
X121542857Y-77102438D02*
X121590476Y-77150057D01*
X121590476Y-77150057D02*
X121638095Y-77245295D01*
X121638095Y-77245295D02*
X121638095Y-77388152D01*
X121638095Y-77388152D02*
X121590476Y-77483390D01*
X121590476Y-77483390D02*
X121542857Y-77531009D01*
X121542857Y-77531009D02*
X121447619Y-77578628D01*
X121447619Y-77578628D02*
X121066667Y-77578628D01*
X139319048Y-80673866D02*
X140080953Y-80673866D01*
X114412969Y-53954819D02*
X113936779Y-53954819D01*
X113936779Y-53954819D02*
X113889160Y-54431009D01*
X113889160Y-54431009D02*
X113936779Y-54383390D01*
X113936779Y-54383390D02*
X114032017Y-54335771D01*
X114032017Y-54335771D02*
X114270112Y-54335771D01*
X114270112Y-54335771D02*
X114365350Y-54383390D01*
X114365350Y-54383390D02*
X114412969Y-54431009D01*
X114412969Y-54431009D02*
X114460588Y-54526247D01*
X114460588Y-54526247D02*
X114460588Y-54764342D01*
X114460588Y-54764342D02*
X114412969Y-54859580D01*
X114412969Y-54859580D02*
X114365350Y-54907200D01*
X114365350Y-54907200D02*
X114270112Y-54954819D01*
X114270112Y-54954819D02*
X114032017Y-54954819D01*
X114032017Y-54954819D02*
X113936779Y-54907200D01*
X113936779Y-54907200D02*
X113889160Y-54859580D01*
X114746303Y-53954819D02*
X115079636Y-54954819D01*
X115079636Y-54954819D02*
X115412969Y-53954819D01*
X116508208Y-54954819D02*
X116508208Y-54288152D01*
X116508208Y-53954819D02*
X116460589Y-54002438D01*
X116460589Y-54002438D02*
X116508208Y-54050057D01*
X116508208Y-54050057D02*
X116555827Y-54002438D01*
X116555827Y-54002438D02*
X116508208Y-53954819D01*
X116508208Y-53954819D02*
X116508208Y-54050057D01*
X116984398Y-54288152D02*
X116984398Y-54954819D01*
X116984398Y-54383390D02*
X117032017Y-54335771D01*
X117032017Y-54335771D02*
X117127255Y-54288152D01*
X117127255Y-54288152D02*
X117270112Y-54288152D01*
X117270112Y-54288152D02*
X117365350Y-54335771D01*
X117365350Y-54335771D02*
X117412969Y-54431009D01*
X117412969Y-54431009D02*
X117412969Y-54954819D01*
X169036779Y-73673866D02*
X169798684Y-73673866D01*
X169417731Y-74054819D02*
X169417731Y-73292914D01*
X113290476Y-63264104D02*
X113766666Y-63264104D01*
X113195238Y-63549819D02*
X113528571Y-62549819D01*
X113528571Y-62549819D02*
X113861904Y-63549819D01*
X114195238Y-62883152D02*
X114195238Y-63549819D01*
X114195238Y-62978390D02*
X114242857Y-62930771D01*
X114242857Y-62930771D02*
X114338095Y-62883152D01*
X114338095Y-62883152D02*
X114480952Y-62883152D01*
X114480952Y-62883152D02*
X114576190Y-62930771D01*
X114576190Y-62930771D02*
X114623809Y-63026009D01*
X114623809Y-63026009D02*
X114623809Y-63549819D01*
X115528571Y-63549819D02*
X115528571Y-63026009D01*
X115528571Y-63026009D02*
X115480952Y-62930771D01*
X115480952Y-62930771D02*
X115385714Y-62883152D01*
X115385714Y-62883152D02*
X115195238Y-62883152D01*
X115195238Y-62883152D02*
X115100000Y-62930771D01*
X115528571Y-63502200D02*
X115433333Y-63549819D01*
X115433333Y-63549819D02*
X115195238Y-63549819D01*
X115195238Y-63549819D02*
X115100000Y-63502200D01*
X115100000Y-63502200D02*
X115052381Y-63406961D01*
X115052381Y-63406961D02*
X115052381Y-63311723D01*
X115052381Y-63311723D02*
X115100000Y-63216485D01*
X115100000Y-63216485D02*
X115195238Y-63168866D01*
X115195238Y-63168866D02*
X115433333Y-63168866D01*
X115433333Y-63168866D02*
X115528571Y-63121247D01*
X116147619Y-63549819D02*
X116052381Y-63502200D01*
X116052381Y-63502200D02*
X116004762Y-63406961D01*
X116004762Y-63406961D02*
X116004762Y-62549819D01*
X116671429Y-63549819D02*
X116576191Y-63502200D01*
X116576191Y-63502200D02*
X116528572Y-63454580D01*
X116528572Y-63454580D02*
X116480953Y-63359342D01*
X116480953Y-63359342D02*
X116480953Y-63073628D01*
X116480953Y-63073628D02*
X116528572Y-62978390D01*
X116528572Y-62978390D02*
X116576191Y-62930771D01*
X116576191Y-62930771D02*
X116671429Y-62883152D01*
X116671429Y-62883152D02*
X116814286Y-62883152D01*
X116814286Y-62883152D02*
X116909524Y-62930771D01*
X116909524Y-62930771D02*
X116957143Y-62978390D01*
X116957143Y-62978390D02*
X117004762Y-63073628D01*
X117004762Y-63073628D02*
X117004762Y-63359342D01*
X117004762Y-63359342D02*
X116957143Y-63454580D01*
X116957143Y-63454580D02*
X116909524Y-63502200D01*
X116909524Y-63502200D02*
X116814286Y-63549819D01*
X116814286Y-63549819D02*
X116671429Y-63549819D01*
X117861905Y-62883152D02*
X117861905Y-63692676D01*
X117861905Y-63692676D02*
X117814286Y-63787914D01*
X117814286Y-63787914D02*
X117766667Y-63835533D01*
X117766667Y-63835533D02*
X117671429Y-63883152D01*
X117671429Y-63883152D02*
X117528572Y-63883152D01*
X117528572Y-63883152D02*
X117433334Y-63835533D01*
X117861905Y-63502200D02*
X117766667Y-63549819D01*
X117766667Y-63549819D02*
X117576191Y-63549819D01*
X117576191Y-63549819D02*
X117480953Y-63502200D01*
X117480953Y-63502200D02*
X117433334Y-63454580D01*
X117433334Y-63454580D02*
X117385715Y-63359342D01*
X117385715Y-63359342D02*
X117385715Y-63073628D01*
X117385715Y-63073628D02*
X117433334Y-62978390D01*
X117433334Y-62978390D02*
X117480953Y-62930771D01*
X117480953Y-62930771D02*
X117576191Y-62883152D01*
X117576191Y-62883152D02*
X117766667Y-62883152D01*
X117766667Y-62883152D02*
X117861905Y-62930771D01*
X114195238Y-64159819D02*
X114528571Y-65159819D01*
X114528571Y-65159819D02*
X114861904Y-64159819D01*
X115957143Y-65159819D02*
X115957143Y-64493152D01*
X115957143Y-64159819D02*
X115909524Y-64207438D01*
X115909524Y-64207438D02*
X115957143Y-64255057D01*
X115957143Y-64255057D02*
X116004762Y-64207438D01*
X116004762Y-64207438D02*
X115957143Y-64159819D01*
X115957143Y-64159819D02*
X115957143Y-64255057D01*
X116433333Y-64493152D02*
X116433333Y-65159819D01*
X116433333Y-64588390D02*
X116480952Y-64540771D01*
X116480952Y-64540771D02*
X116576190Y-64493152D01*
X116576190Y-64493152D02*
X116719047Y-64493152D01*
X116719047Y-64493152D02*
X116814285Y-64540771D01*
X116814285Y-64540771D02*
X116861904Y-64636009D01*
X116861904Y-64636009D02*
X116861904Y-65159819D01*
X162509523Y-64154819D02*
X162033333Y-64154819D01*
X162033333Y-64154819D02*
X161985714Y-64631009D01*
X161985714Y-64631009D02*
X162033333Y-64583390D01*
X162033333Y-64583390D02*
X162128571Y-64535771D01*
X162128571Y-64535771D02*
X162366666Y-64535771D01*
X162366666Y-64535771D02*
X162461904Y-64583390D01*
X162461904Y-64583390D02*
X162509523Y-64631009D01*
X162509523Y-64631009D02*
X162557142Y-64726247D01*
X162557142Y-64726247D02*
X162557142Y-64964342D01*
X162557142Y-64964342D02*
X162509523Y-65059580D01*
X162509523Y-65059580D02*
X162461904Y-65107200D01*
X162461904Y-65107200D02*
X162366666Y-65154819D01*
X162366666Y-65154819D02*
X162128571Y-65154819D01*
X162128571Y-65154819D02*
X162033333Y-65107200D01*
X162033333Y-65107200D02*
X161985714Y-65059580D01*
X162842857Y-64154819D02*
X163176190Y-65154819D01*
X163176190Y-65154819D02*
X163509523Y-64154819D01*
X121441541Y-83608628D02*
X122298684Y-83608628D01*
X121870112Y-85108628D02*
X121870112Y-83608628D01*
X122727255Y-85037200D02*
X122941541Y-85108628D01*
X122941541Y-85108628D02*
X123298683Y-85108628D01*
X123298683Y-85108628D02*
X123441541Y-85037200D01*
X123441541Y-85037200D02*
X123512969Y-84965771D01*
X123512969Y-84965771D02*
X123584398Y-84822914D01*
X123584398Y-84822914D02*
X123584398Y-84680057D01*
X123584398Y-84680057D02*
X123512969Y-84537200D01*
X123512969Y-84537200D02*
X123441541Y-84465771D01*
X123441541Y-84465771D02*
X123298683Y-84394342D01*
X123298683Y-84394342D02*
X123012969Y-84322914D01*
X123012969Y-84322914D02*
X122870112Y-84251485D01*
X122870112Y-84251485D02*
X122798683Y-84180057D01*
X122798683Y-84180057D02*
X122727255Y-84037200D01*
X122727255Y-84037200D02*
X122727255Y-83894342D01*
X122727255Y-83894342D02*
X122798683Y-83751485D01*
X122798683Y-83751485D02*
X122870112Y-83680057D01*
X122870112Y-83680057D02*
X123012969Y-83608628D01*
X123012969Y-83608628D02*
X123370112Y-83608628D01*
X123370112Y-83608628D02*
X123584398Y-83680057D01*
X122142857Y-69907200D02*
X122285714Y-69954819D01*
X122285714Y-69954819D02*
X122523809Y-69954819D01*
X122523809Y-69954819D02*
X122619047Y-69907200D01*
X122619047Y-69907200D02*
X122666666Y-69859580D01*
X122666666Y-69859580D02*
X122714285Y-69764342D01*
X122714285Y-69764342D02*
X122714285Y-69669104D01*
X122714285Y-69669104D02*
X122666666Y-69573866D01*
X122666666Y-69573866D02*
X122619047Y-69526247D01*
X122619047Y-69526247D02*
X122523809Y-69478628D01*
X122523809Y-69478628D02*
X122333333Y-69431009D01*
X122333333Y-69431009D02*
X122238095Y-69383390D01*
X122238095Y-69383390D02*
X122190476Y-69335771D01*
X122190476Y-69335771D02*
X122142857Y-69240533D01*
X122142857Y-69240533D02*
X122142857Y-69145295D01*
X122142857Y-69145295D02*
X122190476Y-69050057D01*
X122190476Y-69050057D02*
X122238095Y-69002438D01*
X122238095Y-69002438D02*
X122333333Y-68954819D01*
X122333333Y-68954819D02*
X122571428Y-68954819D01*
X122571428Y-68954819D02*
X122714285Y-69002438D01*
X123285714Y-69954819D02*
X123190476Y-69907200D01*
X123190476Y-69907200D02*
X123142857Y-69859580D01*
X123142857Y-69859580D02*
X123095238Y-69764342D01*
X123095238Y-69764342D02*
X123095238Y-69478628D01*
X123095238Y-69478628D02*
X123142857Y-69383390D01*
X123142857Y-69383390D02*
X123190476Y-69335771D01*
X123190476Y-69335771D02*
X123285714Y-69288152D01*
X123285714Y-69288152D02*
X123428571Y-69288152D01*
X123428571Y-69288152D02*
X123523809Y-69335771D01*
X123523809Y-69335771D02*
X123571428Y-69383390D01*
X123571428Y-69383390D02*
X123619047Y-69478628D01*
X123619047Y-69478628D02*
X123619047Y-69764342D01*
X123619047Y-69764342D02*
X123571428Y-69859580D01*
X123571428Y-69859580D02*
X123523809Y-69907200D01*
X123523809Y-69907200D02*
X123428571Y-69954819D01*
X123428571Y-69954819D02*
X123285714Y-69954819D01*
X124476190Y-69288152D02*
X124476190Y-69954819D01*
X124047619Y-69288152D02*
X124047619Y-69811961D01*
X124047619Y-69811961D02*
X124095238Y-69907200D01*
X124095238Y-69907200D02*
X124190476Y-69954819D01*
X124190476Y-69954819D02*
X124333333Y-69954819D01*
X124333333Y-69954819D02*
X124428571Y-69907200D01*
X124428571Y-69907200D02*
X124476190Y-69859580D01*
X124952381Y-69954819D02*
X124952381Y-69288152D01*
X124952381Y-69478628D02*
X125000000Y-69383390D01*
X125000000Y-69383390D02*
X125047619Y-69335771D01*
X125047619Y-69335771D02*
X125142857Y-69288152D01*
X125142857Y-69288152D02*
X125238095Y-69288152D01*
X126000000Y-69907200D02*
X125904762Y-69954819D01*
X125904762Y-69954819D02*
X125714286Y-69954819D01*
X125714286Y-69954819D02*
X125619048Y-69907200D01*
X125619048Y-69907200D02*
X125571429Y-69859580D01*
X125571429Y-69859580D02*
X125523810Y-69764342D01*
X125523810Y-69764342D02*
X125523810Y-69478628D01*
X125523810Y-69478628D02*
X125571429Y-69383390D01*
X125571429Y-69383390D02*
X125619048Y-69335771D01*
X125619048Y-69335771D02*
X125714286Y-69288152D01*
X125714286Y-69288152D02*
X125904762Y-69288152D01*
X125904762Y-69288152D02*
X126000000Y-69335771D01*
X126809524Y-69907200D02*
X126714286Y-69954819D01*
X126714286Y-69954819D02*
X126523810Y-69954819D01*
X126523810Y-69954819D02*
X126428572Y-69907200D01*
X126428572Y-69907200D02*
X126380953Y-69811961D01*
X126380953Y-69811961D02*
X126380953Y-69431009D01*
X126380953Y-69431009D02*
X126428572Y-69335771D01*
X126428572Y-69335771D02*
X126523810Y-69288152D01*
X126523810Y-69288152D02*
X126714286Y-69288152D01*
X126714286Y-69288152D02*
X126809524Y-69335771D01*
X126809524Y-69335771D02*
X126857143Y-69431009D01*
X126857143Y-69431009D02*
X126857143Y-69526247D01*
X126857143Y-69526247D02*
X126380953Y-69621485D01*
X138890476Y-65454819D02*
X138890476Y-64454819D01*
X139319047Y-65407200D02*
X139461904Y-65454819D01*
X139461904Y-65454819D02*
X139699999Y-65454819D01*
X139699999Y-65454819D02*
X139795237Y-65407200D01*
X139795237Y-65407200D02*
X139842856Y-65359580D01*
X139842856Y-65359580D02*
X139890475Y-65264342D01*
X139890475Y-65264342D02*
X139890475Y-65169104D01*
X139890475Y-65169104D02*
X139842856Y-65073866D01*
X139842856Y-65073866D02*
X139795237Y-65026247D01*
X139795237Y-65026247D02*
X139699999Y-64978628D01*
X139699999Y-64978628D02*
X139509523Y-64931009D01*
X139509523Y-64931009D02*
X139414285Y-64883390D01*
X139414285Y-64883390D02*
X139366666Y-64835771D01*
X139366666Y-64835771D02*
X139319047Y-64740533D01*
X139319047Y-64740533D02*
X139319047Y-64645295D01*
X139319047Y-64645295D02*
X139366666Y-64550057D01*
X139366666Y-64550057D02*
X139414285Y-64502438D01*
X139414285Y-64502438D02*
X139509523Y-64454819D01*
X139509523Y-64454819D02*
X139747618Y-64454819D01*
X139747618Y-64454819D02*
X139890475Y-64502438D01*
X140509523Y-64454819D02*
X140699999Y-64454819D01*
X140699999Y-64454819D02*
X140795237Y-64502438D01*
X140795237Y-64502438D02*
X140890475Y-64597676D01*
X140890475Y-64597676D02*
X140938094Y-64788152D01*
X140938094Y-64788152D02*
X140938094Y-65121485D01*
X140938094Y-65121485D02*
X140890475Y-65311961D01*
X140890475Y-65311961D02*
X140795237Y-65407200D01*
X140795237Y-65407200D02*
X140699999Y-65454819D01*
X140699999Y-65454819D02*
X140509523Y-65454819D01*
X140509523Y-65454819D02*
X140414285Y-65407200D01*
X140414285Y-65407200D02*
X140319047Y-65311961D01*
X140319047Y-65311961D02*
X140271428Y-65121485D01*
X140271428Y-65121485D02*
X140271428Y-64788152D01*
X140271428Y-64788152D02*
X140319047Y-64597676D01*
X140319047Y-64597676D02*
X140414285Y-64502438D01*
X140414285Y-64502438D02*
X140509523Y-64454819D01*
X142461904Y-64931009D02*
X142128571Y-64931009D01*
X142128571Y-65454819D02*
X142128571Y-64454819D01*
X142128571Y-64454819D02*
X142604761Y-64454819D01*
X143319047Y-64931009D02*
X143461904Y-64978628D01*
X143461904Y-64978628D02*
X143509523Y-65026247D01*
X143509523Y-65026247D02*
X143557142Y-65121485D01*
X143557142Y-65121485D02*
X143557142Y-65264342D01*
X143557142Y-65264342D02*
X143509523Y-65359580D01*
X143509523Y-65359580D02*
X143461904Y-65407200D01*
X143461904Y-65407200D02*
X143366666Y-65454819D01*
X143366666Y-65454819D02*
X142985714Y-65454819D01*
X142985714Y-65454819D02*
X142985714Y-64454819D01*
X142985714Y-64454819D02*
X143319047Y-64454819D01*
X143319047Y-64454819D02*
X143414285Y-64502438D01*
X143414285Y-64502438D02*
X143461904Y-64550057D01*
X143461904Y-64550057D02*
X143509523Y-64645295D01*
X143509523Y-64645295D02*
X143509523Y-64740533D01*
X143509523Y-64740533D02*
X143461904Y-64835771D01*
X143461904Y-64835771D02*
X143414285Y-64883390D01*
X143414285Y-64883390D02*
X143319047Y-64931009D01*
X143319047Y-64931009D02*
X142985714Y-64931009D01*
X117836779Y-69973866D02*
X118598684Y-69973866D01*
X171241541Y-83180057D02*
X171098684Y-83108628D01*
X171098684Y-83108628D02*
X170884398Y-83108628D01*
X170884398Y-83108628D02*
X170670112Y-83180057D01*
X170670112Y-83180057D02*
X170527255Y-83322914D01*
X170527255Y-83322914D02*
X170455826Y-83465771D01*
X170455826Y-83465771D02*
X170384398Y-83751485D01*
X170384398Y-83751485D02*
X170384398Y-83965771D01*
X170384398Y-83965771D02*
X170455826Y-84251485D01*
X170455826Y-84251485D02*
X170527255Y-84394342D01*
X170527255Y-84394342D02*
X170670112Y-84537200D01*
X170670112Y-84537200D02*
X170884398Y-84608628D01*
X170884398Y-84608628D02*
X171027255Y-84608628D01*
X171027255Y-84608628D02*
X171241541Y-84537200D01*
X171241541Y-84537200D02*
X171312969Y-84465771D01*
X171312969Y-84465771D02*
X171312969Y-83965771D01*
X171312969Y-83965771D02*
X171027255Y-83965771D01*
X172670112Y-84608628D02*
X171955826Y-84608628D01*
X171955826Y-84608628D02*
X171955826Y-83108628D01*
X172955827Y-83108628D02*
X173455827Y-84608628D01*
X173455827Y-84608628D02*
X173955827Y-83108628D01*
X167895238Y-64154819D02*
X168228571Y-65154819D01*
X168228571Y-65154819D02*
X168561904Y-64154819D01*
X169800000Y-65154819D02*
X169704762Y-65107200D01*
X169704762Y-65107200D02*
X169657143Y-65059580D01*
X169657143Y-65059580D02*
X169609524Y-64964342D01*
X169609524Y-64964342D02*
X169609524Y-64678628D01*
X169609524Y-64678628D02*
X169657143Y-64583390D01*
X169657143Y-64583390D02*
X169704762Y-64535771D01*
X169704762Y-64535771D02*
X169800000Y-64488152D01*
X169800000Y-64488152D02*
X169942857Y-64488152D01*
X169942857Y-64488152D02*
X170038095Y-64535771D01*
X170038095Y-64535771D02*
X170085714Y-64583390D01*
X170085714Y-64583390D02*
X170133333Y-64678628D01*
X170133333Y-64678628D02*
X170133333Y-64964342D01*
X170133333Y-64964342D02*
X170085714Y-65059580D01*
X170085714Y-65059580D02*
X170038095Y-65107200D01*
X170038095Y-65107200D02*
X169942857Y-65154819D01*
X169942857Y-65154819D02*
X169800000Y-65154819D01*
X170990476Y-64488152D02*
X170990476Y-65154819D01*
X170561905Y-64488152D02*
X170561905Y-65011961D01*
X170561905Y-65011961D02*
X170609524Y-65107200D01*
X170609524Y-65107200D02*
X170704762Y-65154819D01*
X170704762Y-65154819D02*
X170847619Y-65154819D01*
X170847619Y-65154819D02*
X170942857Y-65107200D01*
X170942857Y-65107200D02*
X170990476Y-65059580D01*
X171323810Y-64488152D02*
X171704762Y-64488152D01*
X171466667Y-64154819D02*
X171466667Y-65011961D01*
X171466667Y-65011961D02*
X171514286Y-65107200D01*
X171514286Y-65107200D02*
X171609524Y-65154819D01*
X171609524Y-65154819D02*
X171704762Y-65154819D01*
X125057142Y-54654819D02*
X125057142Y-53654819D01*
X125485713Y-54607200D02*
X125580951Y-54654819D01*
X125580951Y-54654819D02*
X125771427Y-54654819D01*
X125771427Y-54654819D02*
X125866665Y-54607200D01*
X125866665Y-54607200D02*
X125914284Y-54511961D01*
X125914284Y-54511961D02*
X125914284Y-54464342D01*
X125914284Y-54464342D02*
X125866665Y-54369104D01*
X125866665Y-54369104D02*
X125771427Y-54321485D01*
X125771427Y-54321485D02*
X125628570Y-54321485D01*
X125628570Y-54321485D02*
X125533332Y-54273866D01*
X125533332Y-54273866D02*
X125485713Y-54178628D01*
X125485713Y-54178628D02*
X125485713Y-54131009D01*
X125485713Y-54131009D02*
X125533332Y-54035771D01*
X125533332Y-54035771D02*
X125628570Y-53988152D01*
X125628570Y-53988152D02*
X125771427Y-53988152D01*
X125771427Y-53988152D02*
X125866665Y-54035771D01*
X126485713Y-54654819D02*
X126390475Y-54607200D01*
X126390475Y-54607200D02*
X126342856Y-54559580D01*
X126342856Y-54559580D02*
X126295237Y-54464342D01*
X126295237Y-54464342D02*
X126295237Y-54178628D01*
X126295237Y-54178628D02*
X126342856Y-54083390D01*
X126342856Y-54083390D02*
X126390475Y-54035771D01*
X126390475Y-54035771D02*
X126485713Y-53988152D01*
X126485713Y-53988152D02*
X126628570Y-53988152D01*
X126628570Y-53988152D02*
X126723808Y-54035771D01*
X126723808Y-54035771D02*
X126771427Y-54083390D01*
X126771427Y-54083390D02*
X126819046Y-54178628D01*
X126819046Y-54178628D02*
X126819046Y-54464342D01*
X126819046Y-54464342D02*
X126771427Y-54559580D01*
X126771427Y-54559580D02*
X126723808Y-54607200D01*
X126723808Y-54607200D02*
X126628570Y-54654819D01*
X126628570Y-54654819D02*
X126485713Y-54654819D01*
X127961904Y-54607200D02*
X128057142Y-54654819D01*
X128057142Y-54654819D02*
X128247618Y-54654819D01*
X128247618Y-54654819D02*
X128342856Y-54607200D01*
X128342856Y-54607200D02*
X128390475Y-54511961D01*
X128390475Y-54511961D02*
X128390475Y-54464342D01*
X128390475Y-54464342D02*
X128342856Y-54369104D01*
X128342856Y-54369104D02*
X128247618Y-54321485D01*
X128247618Y-54321485D02*
X128104761Y-54321485D01*
X128104761Y-54321485D02*
X128009523Y-54273866D01*
X128009523Y-54273866D02*
X127961904Y-54178628D01*
X127961904Y-54178628D02*
X127961904Y-54131009D01*
X127961904Y-54131009D02*
X128009523Y-54035771D01*
X128009523Y-54035771D02*
X128104761Y-53988152D01*
X128104761Y-53988152D02*
X128247618Y-53988152D01*
X128247618Y-53988152D02*
X128342856Y-54035771D01*
X129247618Y-53988152D02*
X129247618Y-54654819D01*
X128819047Y-53988152D02*
X128819047Y-54511961D01*
X128819047Y-54511961D02*
X128866666Y-54607200D01*
X128866666Y-54607200D02*
X128961904Y-54654819D01*
X128961904Y-54654819D02*
X129104761Y-54654819D01*
X129104761Y-54654819D02*
X129199999Y-54607200D01*
X129199999Y-54607200D02*
X129247618Y-54559580D01*
X129723809Y-53988152D02*
X129723809Y-54988152D01*
X129723809Y-54035771D02*
X129819047Y-53988152D01*
X129819047Y-53988152D02*
X130009523Y-53988152D01*
X130009523Y-53988152D02*
X130104761Y-54035771D01*
X130104761Y-54035771D02*
X130152380Y-54083390D01*
X130152380Y-54083390D02*
X130199999Y-54178628D01*
X130199999Y-54178628D02*
X130199999Y-54464342D01*
X130199999Y-54464342D02*
X130152380Y-54559580D01*
X130152380Y-54559580D02*
X130104761Y-54607200D01*
X130104761Y-54607200D02*
X130009523Y-54654819D01*
X130009523Y-54654819D02*
X129819047Y-54654819D01*
X129819047Y-54654819D02*
X129723809Y-54607200D01*
X130628571Y-53988152D02*
X130628571Y-54988152D01*
X130628571Y-54035771D02*
X130723809Y-53988152D01*
X130723809Y-53988152D02*
X130914285Y-53988152D01*
X130914285Y-53988152D02*
X131009523Y-54035771D01*
X131009523Y-54035771D02*
X131057142Y-54083390D01*
X131057142Y-54083390D02*
X131104761Y-54178628D01*
X131104761Y-54178628D02*
X131104761Y-54464342D01*
X131104761Y-54464342D02*
X131057142Y-54559580D01*
X131057142Y-54559580D02*
X131009523Y-54607200D01*
X131009523Y-54607200D02*
X130914285Y-54654819D01*
X130914285Y-54654819D02*
X130723809Y-54654819D01*
X130723809Y-54654819D02*
X130628571Y-54607200D01*
X131676190Y-54654819D02*
X131580952Y-54607200D01*
X131580952Y-54607200D02*
X131533333Y-54511961D01*
X131533333Y-54511961D02*
X131533333Y-53654819D01*
X131961905Y-53988152D02*
X132200000Y-54654819D01*
X132438095Y-53988152D02*
X132200000Y-54654819D01*
X132200000Y-54654819D02*
X132104762Y-54892914D01*
X132104762Y-54892914D02*
X132057143Y-54940533D01*
X132057143Y-54940533D02*
X131961905Y-54988152D01*
X117686779Y-59923866D02*
X118448684Y-59923866D01*
X169036779Y-60973866D02*
X169798684Y-60973866D01*
X127366666Y-56954819D02*
X127366666Y-57669104D01*
X127366666Y-57669104D02*
X127319047Y-57811961D01*
X127319047Y-57811961D02*
X127223809Y-57907200D01*
X127223809Y-57907200D02*
X127080952Y-57954819D01*
X127080952Y-57954819D02*
X126985714Y-57954819D01*
X127842857Y-57954819D02*
X127842857Y-56954819D01*
X127842857Y-56954819D02*
X128223809Y-56954819D01*
X128223809Y-56954819D02*
X128319047Y-57002438D01*
X128319047Y-57002438D02*
X128366666Y-57050057D01*
X128366666Y-57050057D02*
X128414285Y-57145295D01*
X128414285Y-57145295D02*
X128414285Y-57288152D01*
X128414285Y-57288152D02*
X128366666Y-57383390D01*
X128366666Y-57383390D02*
X128319047Y-57431009D01*
X128319047Y-57431009D02*
X128223809Y-57478628D01*
X128223809Y-57478628D02*
X127842857Y-57478628D01*
X128795238Y-57050057D02*
X128842857Y-57002438D01*
X128842857Y-57002438D02*
X128938095Y-56954819D01*
X128938095Y-56954819D02*
X129176190Y-56954819D01*
X129176190Y-56954819D02*
X129271428Y-57002438D01*
X129271428Y-57002438D02*
X129319047Y-57050057D01*
X129319047Y-57050057D02*
X129366666Y-57145295D01*
X129366666Y-57145295D02*
X129366666Y-57240533D01*
X129366666Y-57240533D02*
X129319047Y-57383390D01*
X129319047Y-57383390D02*
X128747619Y-57954819D01*
X128747619Y-57954819D02*
X129366666Y-57954819D01*
X125714819Y-75733333D02*
X126429104Y-75733333D01*
X126429104Y-75733333D02*
X126571961Y-75780952D01*
X126571961Y-75780952D02*
X126667200Y-75876190D01*
X126667200Y-75876190D02*
X126714819Y-76019047D01*
X126714819Y-76019047D02*
X126714819Y-76114285D01*
X126714819Y-75257142D02*
X125714819Y-75257142D01*
X125714819Y-75257142D02*
X125714819Y-74876190D01*
X125714819Y-74876190D02*
X125762438Y-74780952D01*
X125762438Y-74780952D02*
X125810057Y-74733333D01*
X125810057Y-74733333D02*
X125905295Y-74685714D01*
X125905295Y-74685714D02*
X126048152Y-74685714D01*
X126048152Y-74685714D02*
X126143390Y-74733333D01*
X126143390Y-74733333D02*
X126191009Y-74780952D01*
X126191009Y-74780952D02*
X126238628Y-74876190D01*
X126238628Y-74876190D02*
X126238628Y-75257142D01*
X126714819Y-73733333D02*
X126714819Y-74304761D01*
X126714819Y-74019047D02*
X125714819Y-74019047D01*
X125714819Y-74019047D02*
X125857676Y-74114285D01*
X125857676Y-74114285D02*
X125952914Y-74209523D01*
X125952914Y-74209523D02*
X126000533Y-74304761D01*
X138809524Y-60362295D02*
X138809524Y-59562295D01*
X138809524Y-59562295D02*
X139000000Y-59562295D01*
X139000000Y-59562295D02*
X139114286Y-59600390D01*
X139114286Y-59600390D02*
X139190476Y-59676580D01*
X139190476Y-59676580D02*
X139228571Y-59752771D01*
X139228571Y-59752771D02*
X139266667Y-59905152D01*
X139266667Y-59905152D02*
X139266667Y-60019438D01*
X139266667Y-60019438D02*
X139228571Y-60171819D01*
X139228571Y-60171819D02*
X139190476Y-60248009D01*
X139190476Y-60248009D02*
X139114286Y-60324200D01*
X139114286Y-60324200D02*
X139000000Y-60362295D01*
X139000000Y-60362295D02*
X138809524Y-60362295D01*
X139533333Y-59562295D02*
X140028571Y-59562295D01*
X140028571Y-59562295D02*
X139761905Y-59867057D01*
X139761905Y-59867057D02*
X139876190Y-59867057D01*
X139876190Y-59867057D02*
X139952381Y-59905152D01*
X139952381Y-59905152D02*
X139990476Y-59943247D01*
X139990476Y-59943247D02*
X140028571Y-60019438D01*
X140028571Y-60019438D02*
X140028571Y-60209914D01*
X140028571Y-60209914D02*
X139990476Y-60286104D01*
X139990476Y-60286104D02*
X139952381Y-60324200D01*
X139952381Y-60324200D02*
X139876190Y-60362295D01*
X139876190Y-60362295D02*
X139647619Y-60362295D01*
X139647619Y-60362295D02*
X139571428Y-60324200D01*
X139571428Y-60324200D02*
X139533333Y-60286104D01*
X165526705Y-60560194D02*
X165526705Y-59760194D01*
X165526705Y-59760194D02*
X165717181Y-59760194D01*
X165717181Y-59760194D02*
X165831467Y-59798289D01*
X165831467Y-59798289D02*
X165907657Y-59874479D01*
X165907657Y-59874479D02*
X165945752Y-59950670D01*
X165945752Y-59950670D02*
X165983848Y-60103051D01*
X165983848Y-60103051D02*
X165983848Y-60217337D01*
X165983848Y-60217337D02*
X165945752Y-60369718D01*
X165945752Y-60369718D02*
X165907657Y-60445908D01*
X165907657Y-60445908D02*
X165831467Y-60522099D01*
X165831467Y-60522099D02*
X165717181Y-60560194D01*
X165717181Y-60560194D02*
X165526705Y-60560194D01*
X166288609Y-59836384D02*
X166326705Y-59798289D01*
X166326705Y-59798289D02*
X166402895Y-59760194D01*
X166402895Y-59760194D02*
X166593371Y-59760194D01*
X166593371Y-59760194D02*
X166669562Y-59798289D01*
X166669562Y-59798289D02*
X166707657Y-59836384D01*
X166707657Y-59836384D02*
X166745752Y-59912575D01*
X166745752Y-59912575D02*
X166745752Y-59988765D01*
X166745752Y-59988765D02*
X166707657Y-60103051D01*
X166707657Y-60103051D02*
X166250514Y-60560194D01*
X166250514Y-60560194D02*
X166745752Y-60560194D01*
X139233333Y-54904819D02*
X138900000Y-54428628D01*
X138661905Y-54904819D02*
X138661905Y-53904819D01*
X138661905Y-53904819D02*
X139042857Y-53904819D01*
X139042857Y-53904819D02*
X139138095Y-53952438D01*
X139138095Y-53952438D02*
X139185714Y-54000057D01*
X139185714Y-54000057D02*
X139233333Y-54095295D01*
X139233333Y-54095295D02*
X139233333Y-54238152D01*
X139233333Y-54238152D02*
X139185714Y-54333390D01*
X139185714Y-54333390D02*
X139138095Y-54381009D01*
X139138095Y-54381009D02*
X139042857Y-54428628D01*
X139042857Y-54428628D02*
X138661905Y-54428628D01*
X140090476Y-53904819D02*
X139900000Y-53904819D01*
X139900000Y-53904819D02*
X139804762Y-53952438D01*
X139804762Y-53952438D02*
X139757143Y-54000057D01*
X139757143Y-54000057D02*
X139661905Y-54142914D01*
X139661905Y-54142914D02*
X139614286Y-54333390D01*
X139614286Y-54333390D02*
X139614286Y-54714342D01*
X139614286Y-54714342D02*
X139661905Y-54809580D01*
X139661905Y-54809580D02*
X139709524Y-54857200D01*
X139709524Y-54857200D02*
X139804762Y-54904819D01*
X139804762Y-54904819D02*
X139995238Y-54904819D01*
X139995238Y-54904819D02*
X140090476Y-54857200D01*
X140090476Y-54857200D02*
X140138095Y-54809580D01*
X140138095Y-54809580D02*
X140185714Y-54714342D01*
X140185714Y-54714342D02*
X140185714Y-54476247D01*
X140185714Y-54476247D02*
X140138095Y-54381009D01*
X140138095Y-54381009D02*
X140090476Y-54333390D01*
X140090476Y-54333390D02*
X139995238Y-54285771D01*
X139995238Y-54285771D02*
X139804762Y-54285771D01*
X139804762Y-54285771D02*
X139709524Y-54333390D01*
X139709524Y-54333390D02*
X139661905Y-54381009D01*
X139661905Y-54381009D02*
X139614286Y-54476247D01*
X165950514Y-54902718D02*
X165617181Y-54426527D01*
X165379086Y-54902718D02*
X165379086Y-53902718D01*
X165379086Y-53902718D02*
X165760038Y-53902718D01*
X165760038Y-53902718D02*
X165855276Y-53950337D01*
X165855276Y-53950337D02*
X165902895Y-53997956D01*
X165902895Y-53997956D02*
X165950514Y-54093194D01*
X165950514Y-54093194D02*
X165950514Y-54236051D01*
X165950514Y-54236051D02*
X165902895Y-54331289D01*
X165902895Y-54331289D02*
X165855276Y-54378908D01*
X165855276Y-54378908D02*
X165760038Y-54426527D01*
X165760038Y-54426527D02*
X165379086Y-54426527D01*
X166855276Y-53902718D02*
X166379086Y-53902718D01*
X166379086Y-53902718D02*
X166331467Y-54378908D01*
X166331467Y-54378908D02*
X166379086Y-54331289D01*
X166379086Y-54331289D02*
X166474324Y-54283670D01*
X166474324Y-54283670D02*
X166712419Y-54283670D01*
X166712419Y-54283670D02*
X166807657Y-54331289D01*
X166807657Y-54331289D02*
X166855276Y-54378908D01*
X166855276Y-54378908D02*
X166902895Y-54474146D01*
X166902895Y-54474146D02*
X166902895Y-54712241D01*
X166902895Y-54712241D02*
X166855276Y-54807479D01*
X166855276Y-54807479D02*
X166807657Y-54855099D01*
X166807657Y-54855099D02*
X166712419Y-54902718D01*
X166712419Y-54902718D02*
X166474324Y-54902718D01*
X166474324Y-54902718D02*
X166379086Y-54855099D01*
X166379086Y-54855099D02*
X166331467Y-54807479D01*
D12*
X141738095Y-59457419D02*
X141738095Y-60266942D01*
X141738095Y-60266942D02*
X141785714Y-60362180D01*
X141785714Y-60362180D02*
X141833333Y-60409800D01*
X141833333Y-60409800D02*
X141928571Y-60457419D01*
X141928571Y-60457419D02*
X142119047Y-60457419D01*
X142119047Y-60457419D02*
X142214285Y-60409800D01*
X142214285Y-60409800D02*
X142261904Y-60362180D01*
X142261904Y-60362180D02*
X142309523Y-60266942D01*
X142309523Y-60266942D02*
X142309523Y-59457419D01*
X143214285Y-59790752D02*
X143214285Y-60457419D01*
X142976190Y-59409800D02*
X142738095Y-60124085D01*
X142738095Y-60124085D02*
X143357142Y-60124085D01*
D10*
X158933333Y-71179580D02*
X158885714Y-71227200D01*
X158885714Y-71227200D02*
X158742857Y-71274819D01*
X158742857Y-71274819D02*
X158647619Y-71274819D01*
X158647619Y-71274819D02*
X158504762Y-71227200D01*
X158504762Y-71227200D02*
X158409524Y-71131961D01*
X158409524Y-71131961D02*
X158361905Y-71036723D01*
X158361905Y-71036723D02*
X158314286Y-70846247D01*
X158314286Y-70846247D02*
X158314286Y-70703390D01*
X158314286Y-70703390D02*
X158361905Y-70512914D01*
X158361905Y-70512914D02*
X158409524Y-70417676D01*
X158409524Y-70417676D02*
X158504762Y-70322438D01*
X158504762Y-70322438D02*
X158647619Y-70274819D01*
X158647619Y-70274819D02*
X158742857Y-70274819D01*
X158742857Y-70274819D02*
X158885714Y-70322438D01*
X158885714Y-70322438D02*
X158933333Y-70370057D01*
X159790476Y-70274819D02*
X159600000Y-70274819D01*
X159600000Y-70274819D02*
X159504762Y-70322438D01*
X159504762Y-70322438D02*
X159457143Y-70370057D01*
X159457143Y-70370057D02*
X159361905Y-70512914D01*
X159361905Y-70512914D02*
X159314286Y-70703390D01*
X159314286Y-70703390D02*
X159314286Y-71084342D01*
X159314286Y-71084342D02*
X159361905Y-71179580D01*
X159361905Y-71179580D02*
X159409524Y-71227200D01*
X159409524Y-71227200D02*
X159504762Y-71274819D01*
X159504762Y-71274819D02*
X159695238Y-71274819D01*
X159695238Y-71274819D02*
X159790476Y-71227200D01*
X159790476Y-71227200D02*
X159838095Y-71179580D01*
X159838095Y-71179580D02*
X159885714Y-71084342D01*
X159885714Y-71084342D02*
X159885714Y-70846247D01*
X159885714Y-70846247D02*
X159838095Y-70751009D01*
X159838095Y-70751009D02*
X159790476Y-70703390D01*
X159790476Y-70703390D02*
X159695238Y-70655771D01*
X159695238Y-70655771D02*
X159504762Y-70655771D01*
X159504762Y-70655771D02*
X159409524Y-70703390D01*
X159409524Y-70703390D02*
X159361905Y-70751009D01*
X159361905Y-70751009D02*
X159314286Y-70846247D01*
X136433333Y-74059580D02*
X136385714Y-74107200D01*
X136385714Y-74107200D02*
X136242857Y-74154819D01*
X136242857Y-74154819D02*
X136147619Y-74154819D01*
X136147619Y-74154819D02*
X136004762Y-74107200D01*
X136004762Y-74107200D02*
X135909524Y-74011961D01*
X135909524Y-74011961D02*
X135861905Y-73916723D01*
X135861905Y-73916723D02*
X135814286Y-73726247D01*
X135814286Y-73726247D02*
X135814286Y-73583390D01*
X135814286Y-73583390D02*
X135861905Y-73392914D01*
X135861905Y-73392914D02*
X135909524Y-73297676D01*
X135909524Y-73297676D02*
X136004762Y-73202438D01*
X136004762Y-73202438D02*
X136147619Y-73154819D01*
X136147619Y-73154819D02*
X136242857Y-73154819D01*
X136242857Y-73154819D02*
X136385714Y-73202438D01*
X136385714Y-73202438D02*
X136433333Y-73250057D01*
X137338095Y-73154819D02*
X136861905Y-73154819D01*
X136861905Y-73154819D02*
X136814286Y-73631009D01*
X136814286Y-73631009D02*
X136861905Y-73583390D01*
X136861905Y-73583390D02*
X136957143Y-73535771D01*
X136957143Y-73535771D02*
X137195238Y-73535771D01*
X137195238Y-73535771D02*
X137290476Y-73583390D01*
X137290476Y-73583390D02*
X137338095Y-73631009D01*
X137338095Y-73631009D02*
X137385714Y-73726247D01*
X137385714Y-73726247D02*
X137385714Y-73964342D01*
X137385714Y-73964342D02*
X137338095Y-74059580D01*
X137338095Y-74059580D02*
X137290476Y-74107200D01*
X137290476Y-74107200D02*
X137195238Y-74154819D01*
X137195238Y-74154819D02*
X136957143Y-74154819D01*
X136957143Y-74154819D02*
X136861905Y-74107200D01*
X136861905Y-74107200D02*
X136814286Y-74059580D01*
X129458095Y-71794819D02*
X129458095Y-72604342D01*
X129458095Y-72604342D02*
X129505714Y-72699580D01*
X129505714Y-72699580D02*
X129553333Y-72747200D01*
X129553333Y-72747200D02*
X129648571Y-72794819D01*
X129648571Y-72794819D02*
X129839047Y-72794819D01*
X129839047Y-72794819D02*
X129934285Y-72747200D01*
X129934285Y-72747200D02*
X129981904Y-72699580D01*
X129981904Y-72699580D02*
X130029523Y-72604342D01*
X130029523Y-72604342D02*
X130029523Y-71794819D01*
X130458095Y-71890057D02*
X130505714Y-71842438D01*
X130505714Y-71842438D02*
X130600952Y-71794819D01*
X130600952Y-71794819D02*
X130839047Y-71794819D01*
X130839047Y-71794819D02*
X130934285Y-71842438D01*
X130934285Y-71842438D02*
X130981904Y-71890057D01*
X130981904Y-71890057D02*
X131029523Y-71985295D01*
X131029523Y-71985295D02*
X131029523Y-72080533D01*
X131029523Y-72080533D02*
X130981904Y-72223390D01*
X130981904Y-72223390D02*
X130410476Y-72794819D01*
X130410476Y-72794819D02*
X131029523Y-72794819D01*
X120099580Y-61666666D02*
X120147200Y-61714285D01*
X120147200Y-61714285D02*
X120194819Y-61857142D01*
X120194819Y-61857142D02*
X120194819Y-61952380D01*
X120194819Y-61952380D02*
X120147200Y-62095237D01*
X120147200Y-62095237D02*
X120051961Y-62190475D01*
X120051961Y-62190475D02*
X119956723Y-62238094D01*
X119956723Y-62238094D02*
X119766247Y-62285713D01*
X119766247Y-62285713D02*
X119623390Y-62285713D01*
X119623390Y-62285713D02*
X119432914Y-62238094D01*
X119432914Y-62238094D02*
X119337676Y-62190475D01*
X119337676Y-62190475D02*
X119242438Y-62095237D01*
X119242438Y-62095237D02*
X119194819Y-61952380D01*
X119194819Y-61952380D02*
X119194819Y-61857142D01*
X119194819Y-61857142D02*
X119242438Y-61714285D01*
X119242438Y-61714285D02*
X119290057Y-61666666D01*
X119290057Y-61285713D02*
X119242438Y-61238094D01*
X119242438Y-61238094D02*
X119194819Y-61142856D01*
X119194819Y-61142856D02*
X119194819Y-60904761D01*
X119194819Y-60904761D02*
X119242438Y-60809523D01*
X119242438Y-60809523D02*
X119290057Y-60761904D01*
X119290057Y-60761904D02*
X119385295Y-60714285D01*
X119385295Y-60714285D02*
X119480533Y-60714285D01*
X119480533Y-60714285D02*
X119623390Y-60761904D01*
X119623390Y-60761904D02*
X120194819Y-61333332D01*
X120194819Y-61333332D02*
X120194819Y-60714285D01*
X123109580Y-61666666D02*
X123157200Y-61714285D01*
X123157200Y-61714285D02*
X123204819Y-61857142D01*
X123204819Y-61857142D02*
X123204819Y-61952380D01*
X123204819Y-61952380D02*
X123157200Y-62095237D01*
X123157200Y-62095237D02*
X123061961Y-62190475D01*
X123061961Y-62190475D02*
X122966723Y-62238094D01*
X122966723Y-62238094D02*
X122776247Y-62285713D01*
X122776247Y-62285713D02*
X122633390Y-62285713D01*
X122633390Y-62285713D02*
X122442914Y-62238094D01*
X122442914Y-62238094D02*
X122347676Y-62190475D01*
X122347676Y-62190475D02*
X122252438Y-62095237D01*
X122252438Y-62095237D02*
X122204819Y-61952380D01*
X122204819Y-61952380D02*
X122204819Y-61857142D01*
X122204819Y-61857142D02*
X122252438Y-61714285D01*
X122252438Y-61714285D02*
X122300057Y-61666666D01*
X123204819Y-60714285D02*
X123204819Y-61285713D01*
X123204819Y-60999999D02*
X122204819Y-60999999D01*
X122204819Y-60999999D02*
X122347676Y-61095237D01*
X122347676Y-61095237D02*
X122442914Y-61190475D01*
X122442914Y-61190475D02*
X122490533Y-61285713D01*
X115004761Y-85154819D02*
X114671428Y-84678628D01*
X114433333Y-85154819D02*
X114433333Y-84154819D01*
X114433333Y-84154819D02*
X114814285Y-84154819D01*
X114814285Y-84154819D02*
X114909523Y-84202438D01*
X114909523Y-84202438D02*
X114957142Y-84250057D01*
X114957142Y-84250057D02*
X115004761Y-84345295D01*
X115004761Y-84345295D02*
X115004761Y-84488152D01*
X115004761Y-84488152D02*
X114957142Y-84583390D01*
X114957142Y-84583390D02*
X114909523Y-84631009D01*
X114909523Y-84631009D02*
X114814285Y-84678628D01*
X114814285Y-84678628D02*
X114433333Y-84678628D01*
X115290476Y-84154819D02*
X115623809Y-85154819D01*
X115623809Y-85154819D02*
X115957142Y-84154819D01*
X116814285Y-85154819D02*
X116242857Y-85154819D01*
X116528571Y-85154819D02*
X116528571Y-84154819D01*
X116528571Y-84154819D02*
X116433333Y-84297676D01*
X116433333Y-84297676D02*
X116338095Y-84392914D01*
X116338095Y-84392914D02*
X116242857Y-84440533D01*
X164238095Y-71554819D02*
X164238095Y-72364342D01*
X164238095Y-72364342D02*
X164285714Y-72459580D01*
X164285714Y-72459580D02*
X164333333Y-72507200D01*
X164333333Y-72507200D02*
X164428571Y-72554819D01*
X164428571Y-72554819D02*
X164619047Y-72554819D01*
X164619047Y-72554819D02*
X164714285Y-72507200D01*
X164714285Y-72507200D02*
X164761904Y-72459580D01*
X164761904Y-72459580D02*
X164809523Y-72364342D01*
X164809523Y-72364342D02*
X164809523Y-71554819D01*
X165190476Y-71554819D02*
X165809523Y-71554819D01*
X165809523Y-71554819D02*
X165476190Y-71935771D01*
X165476190Y-71935771D02*
X165619047Y-71935771D01*
X165619047Y-71935771D02*
X165714285Y-71983390D01*
X165714285Y-71983390D02*
X165761904Y-72031009D01*
X165761904Y-72031009D02*
X165809523Y-72126247D01*
X165809523Y-72126247D02*
X165809523Y-72364342D01*
X165809523Y-72364342D02*
X165761904Y-72459580D01*
X165761904Y-72459580D02*
X165714285Y-72507200D01*
X165714285Y-72507200D02*
X165619047Y-72554819D01*
X165619047Y-72554819D02*
X165333333Y-72554819D01*
X165333333Y-72554819D02*
X165238095Y-72507200D01*
X165238095Y-72507200D02*
X165190476Y-72459580D01*
X136433333Y-77704819D02*
X136100000Y-77228628D01*
X135861905Y-77704819D02*
X135861905Y-76704819D01*
X135861905Y-76704819D02*
X136242857Y-76704819D01*
X136242857Y-76704819D02*
X136338095Y-76752438D01*
X136338095Y-76752438D02*
X136385714Y-76800057D01*
X136385714Y-76800057D02*
X136433333Y-76895295D01*
X136433333Y-76895295D02*
X136433333Y-77038152D01*
X136433333Y-77038152D02*
X136385714Y-77133390D01*
X136385714Y-77133390D02*
X136338095Y-77181009D01*
X136338095Y-77181009D02*
X136242857Y-77228628D01*
X136242857Y-77228628D02*
X135861905Y-77228628D01*
X136814286Y-76800057D02*
X136861905Y-76752438D01*
X136861905Y-76752438D02*
X136957143Y-76704819D01*
X136957143Y-76704819D02*
X137195238Y-76704819D01*
X137195238Y-76704819D02*
X137290476Y-76752438D01*
X137290476Y-76752438D02*
X137338095Y-76800057D01*
X137338095Y-76800057D02*
X137385714Y-76895295D01*
X137385714Y-76895295D02*
X137385714Y-76990533D01*
X137385714Y-76990533D02*
X137338095Y-77133390D01*
X137338095Y-77133390D02*
X136766667Y-77704819D01*
X136766667Y-77704819D02*
X137385714Y-77704819D01*
D12*
X142338095Y-69257419D02*
X142338095Y-70066942D01*
X142338095Y-70066942D02*
X142385714Y-70162180D01*
X142385714Y-70162180D02*
X142433333Y-70209800D01*
X142433333Y-70209800D02*
X142528571Y-70257419D01*
X142528571Y-70257419D02*
X142719047Y-70257419D01*
X142719047Y-70257419D02*
X142814285Y-70209800D01*
X142814285Y-70209800D02*
X142861904Y-70162180D01*
X142861904Y-70162180D02*
X142909523Y-70066942D01*
X142909523Y-70066942D02*
X142909523Y-69257419D01*
X143909523Y-70257419D02*
X143338095Y-70257419D01*
X143623809Y-70257419D02*
X143623809Y-69257419D01*
X143623809Y-69257419D02*
X143528571Y-69400276D01*
X143528571Y-69400276D02*
X143433333Y-69495514D01*
X143433333Y-69495514D02*
X143338095Y-69543133D01*
D10*
X156879580Y-59666666D02*
X156927200Y-59714285D01*
X156927200Y-59714285D02*
X156974819Y-59857142D01*
X156974819Y-59857142D02*
X156974819Y-59952380D01*
X156974819Y-59952380D02*
X156927200Y-60095237D01*
X156927200Y-60095237D02*
X156831961Y-60190475D01*
X156831961Y-60190475D02*
X156736723Y-60238094D01*
X156736723Y-60238094D02*
X156546247Y-60285713D01*
X156546247Y-60285713D02*
X156403390Y-60285713D01*
X156403390Y-60285713D02*
X156212914Y-60238094D01*
X156212914Y-60238094D02*
X156117676Y-60190475D01*
X156117676Y-60190475D02*
X156022438Y-60095237D01*
X156022438Y-60095237D02*
X155974819Y-59952380D01*
X155974819Y-59952380D02*
X155974819Y-59857142D01*
X155974819Y-59857142D02*
X156022438Y-59714285D01*
X156022438Y-59714285D02*
X156070057Y-59666666D01*
X155974819Y-59333332D02*
X155974819Y-58714285D01*
X155974819Y-58714285D02*
X156355771Y-59047618D01*
X156355771Y-59047618D02*
X156355771Y-58904761D01*
X156355771Y-58904761D02*
X156403390Y-58809523D01*
X156403390Y-58809523D02*
X156451009Y-58761904D01*
X156451009Y-58761904D02*
X156546247Y-58714285D01*
X156546247Y-58714285D02*
X156784342Y-58714285D01*
X156784342Y-58714285D02*
X156879580Y-58761904D01*
X156879580Y-58761904D02*
X156927200Y-58809523D01*
X156927200Y-58809523D02*
X156974819Y-58904761D01*
X156974819Y-58904761D02*
X156974819Y-59190475D01*
X156974819Y-59190475D02*
X156927200Y-59285713D01*
X156927200Y-59285713D02*
X156879580Y-59333332D01*
X136520833Y-70267319D02*
X136187500Y-69791128D01*
X135949405Y-70267319D02*
X135949405Y-69267319D01*
X135949405Y-69267319D02*
X136330357Y-69267319D01*
X136330357Y-69267319D02*
X136425595Y-69314938D01*
X136425595Y-69314938D02*
X136473214Y-69362557D01*
X136473214Y-69362557D02*
X136520833Y-69457795D01*
X136520833Y-69457795D02*
X136520833Y-69600652D01*
X136520833Y-69600652D02*
X136473214Y-69695890D01*
X136473214Y-69695890D02*
X136425595Y-69743509D01*
X136425595Y-69743509D02*
X136330357Y-69791128D01*
X136330357Y-69791128D02*
X135949405Y-69791128D01*
X137473214Y-70267319D02*
X136901786Y-70267319D01*
X137187500Y-70267319D02*
X137187500Y-69267319D01*
X137187500Y-69267319D02*
X137092262Y-69410176D01*
X137092262Y-69410176D02*
X136997024Y-69505414D01*
X136997024Y-69505414D02*
X136901786Y-69553033D01*
X158933333Y-74854819D02*
X158600000Y-74378628D01*
X158361905Y-74854819D02*
X158361905Y-73854819D01*
X158361905Y-73854819D02*
X158742857Y-73854819D01*
X158742857Y-73854819D02*
X158838095Y-73902438D01*
X158838095Y-73902438D02*
X158885714Y-73950057D01*
X158885714Y-73950057D02*
X158933333Y-74045295D01*
X158933333Y-74045295D02*
X158933333Y-74188152D01*
X158933333Y-74188152D02*
X158885714Y-74283390D01*
X158885714Y-74283390D02*
X158838095Y-74331009D01*
X158838095Y-74331009D02*
X158742857Y-74378628D01*
X158742857Y-74378628D02*
X158361905Y-74378628D01*
X159266667Y-73854819D02*
X159885714Y-73854819D01*
X159885714Y-73854819D02*
X159552381Y-74235771D01*
X159552381Y-74235771D02*
X159695238Y-74235771D01*
X159695238Y-74235771D02*
X159790476Y-74283390D01*
X159790476Y-74283390D02*
X159838095Y-74331009D01*
X159838095Y-74331009D02*
X159885714Y-74426247D01*
X159885714Y-74426247D02*
X159885714Y-74664342D01*
X159885714Y-74664342D02*
X159838095Y-74759580D01*
X159838095Y-74759580D02*
X159790476Y-74807200D01*
X159790476Y-74807200D02*
X159695238Y-74854819D01*
X159695238Y-74854819D02*
X159409524Y-74854819D01*
X159409524Y-74854819D02*
X159314286Y-74807200D01*
X159314286Y-74807200D02*
X159266667Y-74759580D01*
X163459580Y-59666666D02*
X163507200Y-59714285D01*
X163507200Y-59714285D02*
X163554819Y-59857142D01*
X163554819Y-59857142D02*
X163554819Y-59952380D01*
X163554819Y-59952380D02*
X163507200Y-60095237D01*
X163507200Y-60095237D02*
X163411961Y-60190475D01*
X163411961Y-60190475D02*
X163316723Y-60238094D01*
X163316723Y-60238094D02*
X163126247Y-60285713D01*
X163126247Y-60285713D02*
X162983390Y-60285713D01*
X162983390Y-60285713D02*
X162792914Y-60238094D01*
X162792914Y-60238094D02*
X162697676Y-60190475D01*
X162697676Y-60190475D02*
X162602438Y-60095237D01*
X162602438Y-60095237D02*
X162554819Y-59952380D01*
X162554819Y-59952380D02*
X162554819Y-59857142D01*
X162554819Y-59857142D02*
X162602438Y-59714285D01*
X162602438Y-59714285D02*
X162650057Y-59666666D01*
X162888152Y-58809523D02*
X163554819Y-58809523D01*
X162507200Y-59047618D02*
X163221485Y-59285713D01*
X163221485Y-59285713D02*
X163221485Y-58666666D01*
D13*
%TO.C,JP2*%
X126800000Y-58300000D02*
X129600000Y-58300000D01*
X126800000Y-60300000D02*
X126800000Y-58300000D01*
X129600000Y-58300000D02*
X129600000Y-60300000D01*
X129600000Y-60300000D02*
X126800000Y-60300000D01*
%TO.C,JP1*%
X125460000Y-72850000D02*
X125460000Y-76950000D01*
X123460000Y-72850000D02*
X125460000Y-72850000D01*
X122960000Y-73300000D02*
X122960000Y-73900000D01*
X123260000Y-73600000D02*
X122960000Y-73300000D01*
X123260000Y-73600000D02*
X122960000Y-73900000D01*
X125460000Y-76950000D02*
X123460000Y-76950000D01*
X123460000Y-76950000D02*
X123460000Y-72850000D01*
%TO.C,D3*%
X141500000Y-59360000D02*
X141500000Y-57440000D01*
X141500000Y-57440000D02*
X138400000Y-57440000D01*
X138400000Y-59360000D02*
X141500000Y-59360000D01*
%TO.C,D2*%
X168217181Y-59557899D02*
X168217181Y-57637899D01*
X168217181Y-57637899D02*
X165117181Y-57637899D01*
X165117181Y-59557899D02*
X168217181Y-59557899D01*
%TO.C,R6*%
X139172936Y-55365000D02*
X139627064Y-55365000D01*
X139172936Y-56835000D02*
X139627064Y-56835000D01*
%TO.C,R5*%
X165890117Y-55362899D02*
X166344245Y-55362899D01*
X165890117Y-56832899D02*
X166344245Y-56832899D01*
D12*
%TO.C,U4*%
X152250000Y-61500000D02*
X152250000Y-58000000D01*
X150000000Y-64000000D02*
X144750000Y-64000000D01*
X150000000Y-55500000D02*
X146000000Y-55500000D01*
X143750000Y-61500000D02*
X143750000Y-58000000D01*
D14*
X153150000Y-56500000D02*
G75*
G03*
X152850000Y-56500000I-150000J0D01*
G01*
X152850000Y-56500000D02*
G75*
G03*
X153150000Y-56500000I150000J0D01*
G01*
D13*
%TO.C,C6*%
X158838748Y-71765000D02*
X159361252Y-71765000D01*
X158838748Y-73235000D02*
X159361252Y-73235000D01*
%TO.C,C5*%
X136861252Y-76235000D02*
X136338748Y-76235000D01*
X136861252Y-74765000D02*
X136338748Y-74765000D01*
%TO.C,U2*%
X129320000Y-76850000D02*
X131120000Y-76850000D01*
X130320000Y-73630000D02*
X129520000Y-73630000D01*
X130320000Y-73630000D02*
X131120000Y-73630000D01*
X129020000Y-73680000D02*
X128780000Y-73350000D01*
X129260000Y-73350000D01*
X129020000Y-73680000D01*
G36*
X129020000Y-73680000D02*
G01*
X128780000Y-73350000D01*
X129260000Y-73350000D01*
X129020000Y-73680000D01*
G37*
%TO.C,C2*%
X120535000Y-57938748D02*
X120535000Y-58461252D01*
X119065000Y-57938748D02*
X119065000Y-58461252D01*
%TO.C,J3*%
X170670000Y-57090000D02*
X172000000Y-57090000D01*
X170670000Y-58420000D02*
X170670000Y-57090000D01*
X170670000Y-59690000D02*
X170670000Y-62290000D01*
X170670000Y-59690000D02*
X173330000Y-59690000D01*
X170670000Y-62290000D02*
X173330000Y-62290000D01*
X173330000Y-59690000D02*
X173330000Y-62290000D01*
%TO.C,C1*%
X123545000Y-57938748D02*
X123545000Y-58461252D01*
X122075000Y-57938748D02*
X122075000Y-58461252D01*
D15*
%TO.C,RV1*%
X112070000Y-76510000D02*
X119070000Y-76510000D01*
X112070000Y-81510000D02*
X112070000Y-76510000D01*
X112070000Y-81510000D02*
X114070000Y-83510000D01*
X114070000Y-83510000D02*
X119070000Y-83510000D01*
X119070000Y-76510000D02*
X119070000Y-83510000D01*
X113070000Y-83010000D02*
G75*
G03*
X112070000Y-83010000I-500000J0D01*
G01*
X112070000Y-83010000D02*
G75*
G03*
X113070000Y-83010000I500000J0D01*
G01*
D13*
%TO.C,TP2*%
X135700000Y-62400000D02*
G75*
G03*
X133300000Y-62400000I-1200000J0D01*
G01*
X133300000Y-62400000D02*
G75*
G03*
X135700000Y-62400000I1200000J0D01*
G01*
%TO.C,U3*%
X164100000Y-76610000D02*
X165900000Y-76610000D01*
X165100000Y-73390000D02*
X164300000Y-73390000D01*
X165100000Y-73390000D02*
X165900000Y-73390000D01*
X163800000Y-73440000D02*
X163560000Y-73110000D01*
X164040000Y-73110000D01*
X163800000Y-73440000D01*
G36*
X163800000Y-73440000D02*
G01*
X163560000Y-73110000D01*
X164040000Y-73110000D01*
X163800000Y-73440000D01*
G37*
%TO.C,J1*%
X114240000Y-65980000D02*
X115570000Y-65980000D01*
X114240000Y-67310000D02*
X114240000Y-65980000D01*
X114240000Y-68580000D02*
X114240000Y-71180000D01*
X114240000Y-68580000D02*
X116900000Y-68580000D01*
X114240000Y-71180000D02*
X116900000Y-71180000D01*
X116900000Y-68580000D02*
X116900000Y-71180000D01*
%TO.C,TP1*%
X130750000Y-81855000D02*
X132080000Y-81855000D01*
X130750000Y-83185000D02*
X130750000Y-81855000D01*
X130750000Y-84455000D02*
X130750000Y-84515000D01*
X130750000Y-84455000D02*
X133410000Y-84455000D01*
X130750000Y-84515000D02*
X133410000Y-84515000D01*
X133410000Y-84455000D02*
X133410000Y-84515000D01*
%TO.C,TP4*%
X154245000Y-81855000D02*
X155575000Y-81855000D01*
X154245000Y-83185000D02*
X154245000Y-81855000D01*
X154245000Y-84455000D02*
X154245000Y-84515000D01*
X154245000Y-84455000D02*
X156905000Y-84455000D01*
X154245000Y-84515000D02*
X156905000Y-84515000D01*
X156905000Y-84455000D02*
X156905000Y-84515000D01*
%TO.C,TP9*%
X163770000Y-81855000D02*
X165100000Y-81855000D01*
X163770000Y-83185000D02*
X163770000Y-81855000D01*
X163770000Y-84455000D02*
X163770000Y-84515000D01*
X163770000Y-84455000D02*
X166430000Y-84455000D01*
X163770000Y-84515000D02*
X166430000Y-84515000D01*
X166430000Y-84455000D02*
X166430000Y-84515000D01*
%TO.C,TP5*%
X171000000Y-67200000D02*
G75*
G03*
X168600000Y-67200000I-1200000J0D01*
G01*
X168600000Y-67200000D02*
G75*
G03*
X171000000Y-67200000I1200000J0D01*
G01*
%TO.C,J4*%
X114240000Y-55820000D02*
X115570000Y-55820000D01*
X114240000Y-57150000D02*
X114240000Y-55820000D01*
X114240000Y-58420000D02*
X114240000Y-61020000D01*
X114240000Y-58420000D02*
X116900000Y-58420000D01*
X114240000Y-61020000D02*
X116900000Y-61020000D01*
X116900000Y-58420000D02*
X116900000Y-61020000D01*
%TO.C,R2*%
X136372936Y-78165000D02*
X136827064Y-78165000D01*
X136372936Y-79635000D02*
X136827064Y-79635000D01*
%TO.C,J2*%
X170670000Y-72330000D02*
X172000000Y-72330000D01*
X170670000Y-73660000D02*
X170670000Y-72330000D01*
X170670000Y-74930000D02*
X170670000Y-77530000D01*
X170670000Y-74930000D02*
X173330000Y-74930000D01*
X170670000Y-77530000D02*
X173330000Y-77530000D01*
X173330000Y-74930000D02*
X173330000Y-77530000D01*
D12*
%TO.C,U1*%
X144500000Y-70740000D02*
X151302000Y-70740000D01*
X151302000Y-70740000D02*
X151302000Y-79558000D01*
X151302000Y-79558000D02*
X144500000Y-79558000D01*
X144500000Y-79558000D02*
X144500000Y-70740000D01*
D16*
X140913000Y-71303000D02*
G75*
G03*
X140609000Y-71303000I-152000J0D01*
G01*
X140609000Y-71303000D02*
G75*
G03*
X140913000Y-71303000I152000J0D01*
G01*
D13*
%TO.C,C3*%
X157465000Y-59761252D02*
X157465000Y-59238748D01*
X158935000Y-59761252D02*
X158935000Y-59238748D01*
%TO.C,R1*%
X136460436Y-70727500D02*
X136914564Y-70727500D01*
X136460436Y-72197500D02*
X136914564Y-72197500D01*
%TO.C,R3*%
X159327064Y-76735000D02*
X158872936Y-76735000D01*
X159327064Y-75265000D02*
X158872936Y-75265000D01*
%TO.C,TP3*%
X142400000Y-67300000D02*
G75*
G03*
X140000000Y-67300000I-1200000J0D01*
G01*
X140000000Y-67300000D02*
G75*
G03*
X142400000Y-67300000I1200000J0D01*
G01*
%TO.C,TP6*%
X135800000Y-67300000D02*
G75*
G03*
X133400000Y-67300000I-1200000J0D01*
G01*
X133400000Y-67300000D02*
G75*
G03*
X135800000Y-67300000I1200000J0D01*
G01*
%TO.C,TP8*%
X138370000Y-81855000D02*
X139700000Y-81855000D01*
X138370000Y-83185000D02*
X138370000Y-81855000D01*
X138370000Y-84455000D02*
X138370000Y-84515000D01*
X138370000Y-84455000D02*
X141030000Y-84455000D01*
X138370000Y-84515000D02*
X141030000Y-84515000D01*
X141030000Y-84455000D02*
X141030000Y-84515000D01*
%TO.C,C4*%
X160475000Y-59761252D02*
X160475000Y-59238748D01*
X161945000Y-59761252D02*
X161945000Y-59238748D01*
%TO.C,TP7*%
X163900000Y-67200000D02*
G75*
G03*
X161500000Y-67200000I-1200000J0D01*
G01*
X161500000Y-67200000D02*
G75*
G03*
X163900000Y-67200000I1200000J0D01*
G01*
%TD*%
M02*
