%TF.GenerationSoftware,KiCad,Pcbnew,7.0.11*%
%TF.CreationDate,2026-01-19T17:47:02+08:00*%
%TF.ProjectId,iso_analog,69736f5f-616e-4616-9c6f-672e6b696361,rev?*%
%TF.SameCoordinates,Original*%
%TF.FileFunction,Drillmap*%
%TF.FilePolarity,Positive*%
%FSLAX45Y45*%
G04 Gerber Fmt 4.5, Leading zero omitted, Abs format (unit mm)*
G04 Created by KiCad (PCBNEW 7.0.11) date 2026-01-19 17:47:02*
%MOMM*%
%LPD*%
G01*
G04 APERTURE LIST*
%ADD10C,0.050000*%
%ADD11C,0.200000*%
%ADD12C,0.100000*%
G04 APERTURE END LIST*
D10*
X14750000Y-6860000D02*
X14850000Y-6860000D01*
X14850000Y-8400000D01*
X14750000Y-8400000D01*
X14750000Y-6860000D01*
X14750000Y-5400000D02*
X14850000Y-5400000D01*
X14850000Y-6560000D01*
X14750000Y-6560000D01*
X14750000Y-5400000D01*
X11100000Y-5300000D02*
X17500000Y-5300000D01*
X17500000Y-8600000D01*
X11100000Y-8600000D01*
X11100000Y-5300000D01*
D11*
D12*
X13142000Y-7015000D02*
X13172000Y-7045000D01*
X13172000Y-7015000D02*
X13142000Y-7045000D01*
X13185000Y-5795000D02*
X13215000Y-5825000D01*
X13215000Y-5795000D02*
X13185000Y-5825000D01*
X13255000Y-6225000D02*
X13285000Y-6255000D01*
X13285000Y-6225000D02*
X13255000Y-6255000D01*
X13355000Y-7025000D02*
X13385000Y-7055000D01*
X13385000Y-7025000D02*
X13355000Y-7055000D01*
X14015000Y-7625000D02*
X14045000Y-7655000D01*
X14045000Y-7625000D02*
X14015000Y-7655000D01*
X14026900Y-7876900D02*
X14056900Y-7906900D01*
X14056900Y-7876900D02*
X14026900Y-7906900D01*
X14335000Y-6705000D02*
X14365000Y-6735000D01*
X14365000Y-6705000D02*
X14335000Y-6735000D01*
X11338000Y-8001000D02*
G75*
G03*
X11268000Y-8001000I-35000J0D01*
G01*
X11268000Y-8001000D02*
G75*
G03*
X11338000Y-8001000I35000J0D01*
G01*
X11592000Y-7747000D02*
G75*
G03*
X11522000Y-7747000I-35000J0D01*
G01*
X11522000Y-7747000D02*
G75*
G03*
X11592000Y-7747000I35000J0D01*
G01*
X11846000Y-8001000D02*
G75*
G03*
X11776000Y-8001000I-35000J0D01*
G01*
X11776000Y-8001000D02*
G75*
G03*
X11846000Y-8001000I35000J0D01*
G01*
X11557000Y-5665000D02*
X11557000Y-5765000D01*
X11507000Y-5715000D02*
X11607000Y-5715000D01*
X11557000Y-5919000D02*
X11557000Y-6019000D01*
X11507000Y-5969000D02*
X11607000Y-5969000D01*
X11557000Y-6681000D02*
X11557000Y-6781000D01*
X11507000Y-6731000D02*
X11607000Y-6731000D01*
X11557000Y-6935000D02*
X11557000Y-7035000D01*
X11507000Y-6985000D02*
X11607000Y-6985000D01*
X13208000Y-8268500D02*
X13208000Y-8368500D01*
X13158000Y-8318500D02*
X13258000Y-8318500D01*
X13970000Y-8268500D02*
X13970000Y-8368500D01*
X13920000Y-8318500D02*
X14020000Y-8318500D01*
X15557500Y-8268500D02*
X15557500Y-8368500D01*
X15507500Y-8318500D02*
X15607500Y-8318500D01*
X16510000Y-8268500D02*
X16510000Y-8368500D01*
X16460000Y-8318500D02*
X16560000Y-8318500D01*
X17200000Y-5792000D02*
X17200000Y-5892000D01*
X17150000Y-5842000D02*
X17250000Y-5842000D01*
X17200000Y-6046000D02*
X17200000Y-6146000D01*
X17150000Y-6096000D02*
X17250000Y-6096000D01*
X17200000Y-7316000D02*
X17200000Y-7416000D01*
X17150000Y-7366000D02*
X17250000Y-7366000D01*
X17200000Y-7570000D02*
X17200000Y-7670000D01*
X17150000Y-7620000D02*
X17250000Y-7620000D01*
D11*
X11358277Y-8913984D02*
X11358277Y-8713984D01*
X11358277Y-8713984D02*
X11405896Y-8713984D01*
X11405896Y-8713984D02*
X11434467Y-8723508D01*
X11434467Y-8723508D02*
X11453515Y-8742555D01*
X11453515Y-8742555D02*
X11463039Y-8761603D01*
X11463039Y-8761603D02*
X11472562Y-8799698D01*
X11472562Y-8799698D02*
X11472562Y-8828270D01*
X11472562Y-8828270D02*
X11463039Y-8866365D01*
X11463039Y-8866365D02*
X11453515Y-8885412D01*
X11453515Y-8885412D02*
X11434467Y-8904460D01*
X11434467Y-8904460D02*
X11405896Y-8913984D01*
X11405896Y-8913984D02*
X11358277Y-8913984D01*
X11558277Y-8913984D02*
X11558277Y-8780650D01*
X11558277Y-8818746D02*
X11567801Y-8799698D01*
X11567801Y-8799698D02*
X11577324Y-8790174D01*
X11577324Y-8790174D02*
X11596372Y-8780650D01*
X11596372Y-8780650D02*
X11615420Y-8780650D01*
X11682086Y-8913984D02*
X11682086Y-8780650D01*
X11682086Y-8713984D02*
X11672562Y-8723508D01*
X11672562Y-8723508D02*
X11682086Y-8733031D01*
X11682086Y-8733031D02*
X11691610Y-8723508D01*
X11691610Y-8723508D02*
X11682086Y-8713984D01*
X11682086Y-8713984D02*
X11682086Y-8733031D01*
X11805896Y-8913984D02*
X11786848Y-8904460D01*
X11786848Y-8904460D02*
X11777324Y-8885412D01*
X11777324Y-8885412D02*
X11777324Y-8713984D01*
X11910658Y-8913984D02*
X11891610Y-8904460D01*
X11891610Y-8904460D02*
X11882086Y-8885412D01*
X11882086Y-8885412D02*
X11882086Y-8713984D01*
X12139229Y-8913984D02*
X12139229Y-8713984D01*
X12139229Y-8713984D02*
X12205896Y-8856841D01*
X12205896Y-8856841D02*
X12272562Y-8713984D01*
X12272562Y-8713984D02*
X12272562Y-8913984D01*
X12453515Y-8913984D02*
X12453515Y-8809222D01*
X12453515Y-8809222D02*
X12443991Y-8790174D01*
X12443991Y-8790174D02*
X12424943Y-8780650D01*
X12424943Y-8780650D02*
X12386848Y-8780650D01*
X12386848Y-8780650D02*
X12367801Y-8790174D01*
X12453515Y-8904460D02*
X12434467Y-8913984D01*
X12434467Y-8913984D02*
X12386848Y-8913984D01*
X12386848Y-8913984D02*
X12367801Y-8904460D01*
X12367801Y-8904460D02*
X12358277Y-8885412D01*
X12358277Y-8885412D02*
X12358277Y-8866365D01*
X12358277Y-8866365D02*
X12367801Y-8847317D01*
X12367801Y-8847317D02*
X12386848Y-8837793D01*
X12386848Y-8837793D02*
X12434467Y-8837793D01*
X12434467Y-8837793D02*
X12453515Y-8828270D01*
X12548753Y-8780650D02*
X12548753Y-8980650D01*
X12548753Y-8790174D02*
X12567801Y-8780650D01*
X12567801Y-8780650D02*
X12605896Y-8780650D01*
X12605896Y-8780650D02*
X12624943Y-8790174D01*
X12624943Y-8790174D02*
X12634467Y-8799698D01*
X12634467Y-8799698D02*
X12643991Y-8818746D01*
X12643991Y-8818746D02*
X12643991Y-8875889D01*
X12643991Y-8875889D02*
X12634467Y-8894936D01*
X12634467Y-8894936D02*
X12624943Y-8904460D01*
X12624943Y-8904460D02*
X12605896Y-8913984D01*
X12605896Y-8913984D02*
X12567801Y-8913984D01*
X12567801Y-8913984D02*
X12548753Y-8904460D01*
X12729705Y-8894936D02*
X12739229Y-8904460D01*
X12739229Y-8904460D02*
X12729705Y-8913984D01*
X12729705Y-8913984D02*
X12720182Y-8904460D01*
X12720182Y-8904460D02*
X12729705Y-8894936D01*
X12729705Y-8894936D02*
X12729705Y-8913984D01*
X12729705Y-8790174D02*
X12739229Y-8799698D01*
X12739229Y-8799698D02*
X12729705Y-8809222D01*
X12729705Y-8809222D02*
X12720182Y-8799698D01*
X12720182Y-8799698D02*
X12729705Y-8790174D01*
X12729705Y-8790174D02*
X12729705Y-8809222D01*
D12*
X11067500Y-9227500D02*
X11097500Y-9257500D01*
X11097500Y-9227500D02*
X11067500Y-9257500D01*
D11*
X11396372Y-9133984D02*
X11415420Y-9133984D01*
X11415420Y-9133984D02*
X11434467Y-9143508D01*
X11434467Y-9143508D02*
X11443991Y-9153031D01*
X11443991Y-9153031D02*
X11453515Y-9172079D01*
X11453515Y-9172079D02*
X11463039Y-9210174D01*
X11463039Y-9210174D02*
X11463039Y-9257793D01*
X11463039Y-9257793D02*
X11453515Y-9295889D01*
X11453515Y-9295889D02*
X11443991Y-9314936D01*
X11443991Y-9314936D02*
X11434467Y-9324460D01*
X11434467Y-9324460D02*
X11415420Y-9333984D01*
X11415420Y-9333984D02*
X11396372Y-9333984D01*
X11396372Y-9333984D02*
X11377324Y-9324460D01*
X11377324Y-9324460D02*
X11367801Y-9314936D01*
X11367801Y-9314936D02*
X11358277Y-9295889D01*
X11358277Y-9295889D02*
X11348753Y-9257793D01*
X11348753Y-9257793D02*
X11348753Y-9210174D01*
X11348753Y-9210174D02*
X11358277Y-9172079D01*
X11358277Y-9172079D02*
X11367801Y-9153031D01*
X11367801Y-9153031D02*
X11377324Y-9143508D01*
X11377324Y-9143508D02*
X11396372Y-9133984D01*
X11548753Y-9314936D02*
X11558277Y-9324460D01*
X11558277Y-9324460D02*
X11548753Y-9333984D01*
X11548753Y-9333984D02*
X11539229Y-9324460D01*
X11539229Y-9324460D02*
X11548753Y-9314936D01*
X11548753Y-9314936D02*
X11548753Y-9333984D01*
X11624943Y-9133984D02*
X11748753Y-9133984D01*
X11748753Y-9133984D02*
X11682086Y-9210174D01*
X11682086Y-9210174D02*
X11710658Y-9210174D01*
X11710658Y-9210174D02*
X11729705Y-9219698D01*
X11729705Y-9219698D02*
X11739229Y-9229222D01*
X11739229Y-9229222D02*
X11748753Y-9248270D01*
X11748753Y-9248270D02*
X11748753Y-9295889D01*
X11748753Y-9295889D02*
X11739229Y-9314936D01*
X11739229Y-9314936D02*
X11729705Y-9324460D01*
X11729705Y-9324460D02*
X11710658Y-9333984D01*
X11710658Y-9333984D02*
X11653515Y-9333984D01*
X11653515Y-9333984D02*
X11634467Y-9324460D01*
X11634467Y-9324460D02*
X11624943Y-9314936D01*
X11872562Y-9133984D02*
X11891610Y-9133984D01*
X11891610Y-9133984D02*
X11910658Y-9143508D01*
X11910658Y-9143508D02*
X11920182Y-9153031D01*
X11920182Y-9153031D02*
X11929705Y-9172079D01*
X11929705Y-9172079D02*
X11939229Y-9210174D01*
X11939229Y-9210174D02*
X11939229Y-9257793D01*
X11939229Y-9257793D02*
X11929705Y-9295889D01*
X11929705Y-9295889D02*
X11920182Y-9314936D01*
X11920182Y-9314936D02*
X11910658Y-9324460D01*
X11910658Y-9324460D02*
X11891610Y-9333984D01*
X11891610Y-9333984D02*
X11872562Y-9333984D01*
X11872562Y-9333984D02*
X11853515Y-9324460D01*
X11853515Y-9324460D02*
X11843991Y-9314936D01*
X11843991Y-9314936D02*
X11834467Y-9295889D01*
X11834467Y-9295889D02*
X11824943Y-9257793D01*
X11824943Y-9257793D02*
X11824943Y-9210174D01*
X11824943Y-9210174D02*
X11834467Y-9172079D01*
X11834467Y-9172079D02*
X11843991Y-9153031D01*
X11843991Y-9153031D02*
X11853515Y-9143508D01*
X11853515Y-9143508D02*
X11872562Y-9133984D01*
X12063039Y-9133984D02*
X12082086Y-9133984D01*
X12082086Y-9133984D02*
X12101134Y-9143508D01*
X12101134Y-9143508D02*
X12110658Y-9153031D01*
X12110658Y-9153031D02*
X12120182Y-9172079D01*
X12120182Y-9172079D02*
X12129705Y-9210174D01*
X12129705Y-9210174D02*
X12129705Y-9257793D01*
X12129705Y-9257793D02*
X12120182Y-9295889D01*
X12120182Y-9295889D02*
X12110658Y-9314936D01*
X12110658Y-9314936D02*
X12101134Y-9324460D01*
X12101134Y-9324460D02*
X12082086Y-9333984D01*
X12082086Y-9333984D02*
X12063039Y-9333984D01*
X12063039Y-9333984D02*
X12043991Y-9324460D01*
X12043991Y-9324460D02*
X12034467Y-9314936D01*
X12034467Y-9314936D02*
X12024943Y-9295889D01*
X12024943Y-9295889D02*
X12015420Y-9257793D01*
X12015420Y-9257793D02*
X12015420Y-9210174D01*
X12015420Y-9210174D02*
X12024943Y-9172079D01*
X12024943Y-9172079D02*
X12034467Y-9153031D01*
X12034467Y-9153031D02*
X12043991Y-9143508D01*
X12043991Y-9143508D02*
X12063039Y-9133984D01*
X12215420Y-9333984D02*
X12215420Y-9200650D01*
X12215420Y-9219698D02*
X12224943Y-9210174D01*
X12224943Y-9210174D02*
X12243991Y-9200650D01*
X12243991Y-9200650D02*
X12272563Y-9200650D01*
X12272563Y-9200650D02*
X12291610Y-9210174D01*
X12291610Y-9210174D02*
X12301134Y-9229222D01*
X12301134Y-9229222D02*
X12301134Y-9333984D01*
X12301134Y-9229222D02*
X12310658Y-9210174D01*
X12310658Y-9210174D02*
X12329705Y-9200650D01*
X12329705Y-9200650D02*
X12358277Y-9200650D01*
X12358277Y-9200650D02*
X12377324Y-9210174D01*
X12377324Y-9210174D02*
X12386848Y-9229222D01*
X12386848Y-9229222D02*
X12386848Y-9333984D01*
X12482086Y-9333984D02*
X12482086Y-9200650D01*
X12482086Y-9219698D02*
X12491610Y-9210174D01*
X12491610Y-9210174D02*
X12510658Y-9200650D01*
X12510658Y-9200650D02*
X12539229Y-9200650D01*
X12539229Y-9200650D02*
X12558277Y-9210174D01*
X12558277Y-9210174D02*
X12567801Y-9229222D01*
X12567801Y-9229222D02*
X12567801Y-9333984D01*
X12567801Y-9229222D02*
X12577324Y-9210174D01*
X12577324Y-9210174D02*
X12596372Y-9200650D01*
X12596372Y-9200650D02*
X12624943Y-9200650D01*
X12624943Y-9200650D02*
X12643991Y-9210174D01*
X12643991Y-9210174D02*
X12653515Y-9229222D01*
X12653515Y-9229222D02*
X12653515Y-9333984D01*
X13043991Y-9124460D02*
X12872563Y-9381603D01*
X13301134Y-9133984D02*
X13320182Y-9133984D01*
X13320182Y-9133984D02*
X13339229Y-9143508D01*
X13339229Y-9143508D02*
X13348753Y-9153031D01*
X13348753Y-9153031D02*
X13358277Y-9172079D01*
X13358277Y-9172079D02*
X13367801Y-9210174D01*
X13367801Y-9210174D02*
X13367801Y-9257793D01*
X13367801Y-9257793D02*
X13358277Y-9295889D01*
X13358277Y-9295889D02*
X13348753Y-9314936D01*
X13348753Y-9314936D02*
X13339229Y-9324460D01*
X13339229Y-9324460D02*
X13320182Y-9333984D01*
X13320182Y-9333984D02*
X13301134Y-9333984D01*
X13301134Y-9333984D02*
X13282086Y-9324460D01*
X13282086Y-9324460D02*
X13272563Y-9314936D01*
X13272563Y-9314936D02*
X13263039Y-9295889D01*
X13263039Y-9295889D02*
X13253515Y-9257793D01*
X13253515Y-9257793D02*
X13253515Y-9210174D01*
X13253515Y-9210174D02*
X13263039Y-9172079D01*
X13263039Y-9172079D02*
X13272563Y-9153031D01*
X13272563Y-9153031D02*
X13282086Y-9143508D01*
X13282086Y-9143508D02*
X13301134Y-9133984D01*
X13453515Y-9314936D02*
X13463039Y-9324460D01*
X13463039Y-9324460D02*
X13453515Y-9333984D01*
X13453515Y-9333984D02*
X13443991Y-9324460D01*
X13443991Y-9324460D02*
X13453515Y-9314936D01*
X13453515Y-9314936D02*
X13453515Y-9333984D01*
X13586848Y-9133984D02*
X13605896Y-9133984D01*
X13605896Y-9133984D02*
X13624944Y-9143508D01*
X13624944Y-9143508D02*
X13634467Y-9153031D01*
X13634467Y-9153031D02*
X13643991Y-9172079D01*
X13643991Y-9172079D02*
X13653515Y-9210174D01*
X13653515Y-9210174D02*
X13653515Y-9257793D01*
X13653515Y-9257793D02*
X13643991Y-9295889D01*
X13643991Y-9295889D02*
X13634467Y-9314936D01*
X13634467Y-9314936D02*
X13624944Y-9324460D01*
X13624944Y-9324460D02*
X13605896Y-9333984D01*
X13605896Y-9333984D02*
X13586848Y-9333984D01*
X13586848Y-9333984D02*
X13567801Y-9324460D01*
X13567801Y-9324460D02*
X13558277Y-9314936D01*
X13558277Y-9314936D02*
X13548753Y-9295889D01*
X13548753Y-9295889D02*
X13539229Y-9257793D01*
X13539229Y-9257793D02*
X13539229Y-9210174D01*
X13539229Y-9210174D02*
X13548753Y-9172079D01*
X13548753Y-9172079D02*
X13558277Y-9153031D01*
X13558277Y-9153031D02*
X13567801Y-9143508D01*
X13567801Y-9143508D02*
X13586848Y-9133984D01*
X13843991Y-9333984D02*
X13729706Y-9333984D01*
X13786848Y-9333984D02*
X13786848Y-9133984D01*
X13786848Y-9133984D02*
X13767801Y-9162555D01*
X13767801Y-9162555D02*
X13748753Y-9181603D01*
X13748753Y-9181603D02*
X13729706Y-9191127D01*
X14034467Y-9333984D02*
X13920182Y-9333984D01*
X13977325Y-9333984D02*
X13977325Y-9133984D01*
X13977325Y-9133984D02*
X13958277Y-9162555D01*
X13958277Y-9162555D02*
X13939229Y-9181603D01*
X13939229Y-9181603D02*
X13920182Y-9191127D01*
X14148753Y-9219698D02*
X14129706Y-9210174D01*
X14129706Y-9210174D02*
X14120182Y-9200650D01*
X14120182Y-9200650D02*
X14110658Y-9181603D01*
X14110658Y-9181603D02*
X14110658Y-9172079D01*
X14110658Y-9172079D02*
X14120182Y-9153031D01*
X14120182Y-9153031D02*
X14129706Y-9143508D01*
X14129706Y-9143508D02*
X14148753Y-9133984D01*
X14148753Y-9133984D02*
X14186848Y-9133984D01*
X14186848Y-9133984D02*
X14205896Y-9143508D01*
X14205896Y-9143508D02*
X14215420Y-9153031D01*
X14215420Y-9153031D02*
X14224944Y-9172079D01*
X14224944Y-9172079D02*
X14224944Y-9181603D01*
X14224944Y-9181603D02*
X14215420Y-9200650D01*
X14215420Y-9200650D02*
X14205896Y-9210174D01*
X14205896Y-9210174D02*
X14186848Y-9219698D01*
X14186848Y-9219698D02*
X14148753Y-9219698D01*
X14148753Y-9219698D02*
X14129706Y-9229222D01*
X14129706Y-9229222D02*
X14120182Y-9238746D01*
X14120182Y-9238746D02*
X14110658Y-9257793D01*
X14110658Y-9257793D02*
X14110658Y-9295889D01*
X14110658Y-9295889D02*
X14120182Y-9314936D01*
X14120182Y-9314936D02*
X14129706Y-9324460D01*
X14129706Y-9324460D02*
X14148753Y-9333984D01*
X14148753Y-9333984D02*
X14186848Y-9333984D01*
X14186848Y-9333984D02*
X14205896Y-9324460D01*
X14205896Y-9324460D02*
X14215420Y-9314936D01*
X14215420Y-9314936D02*
X14224944Y-9295889D01*
X14224944Y-9295889D02*
X14224944Y-9257793D01*
X14224944Y-9257793D02*
X14215420Y-9238746D01*
X14215420Y-9238746D02*
X14205896Y-9229222D01*
X14205896Y-9229222D02*
X14186848Y-9219698D01*
X14301134Y-9133984D02*
X14301134Y-9172079D01*
X14377325Y-9133984D02*
X14377325Y-9172079D01*
X14672563Y-9410174D02*
X14663039Y-9400650D01*
X14663039Y-9400650D02*
X14643991Y-9372079D01*
X14643991Y-9372079D02*
X14634468Y-9353031D01*
X14634468Y-9353031D02*
X14624944Y-9324460D01*
X14624944Y-9324460D02*
X14615420Y-9276841D01*
X14615420Y-9276841D02*
X14615420Y-9238746D01*
X14615420Y-9238746D02*
X14624944Y-9191127D01*
X14624944Y-9191127D02*
X14634468Y-9162555D01*
X14634468Y-9162555D02*
X14643991Y-9143508D01*
X14643991Y-9143508D02*
X14663039Y-9114936D01*
X14663039Y-9114936D02*
X14672563Y-9105412D01*
X14729706Y-9133984D02*
X14863039Y-9133984D01*
X14863039Y-9133984D02*
X14777325Y-9333984D01*
X15091610Y-9333984D02*
X15091610Y-9133984D01*
X15177325Y-9333984D02*
X15177325Y-9229222D01*
X15177325Y-9229222D02*
X15167801Y-9210174D01*
X15167801Y-9210174D02*
X15148753Y-9200650D01*
X15148753Y-9200650D02*
X15120182Y-9200650D01*
X15120182Y-9200650D02*
X15101134Y-9210174D01*
X15101134Y-9210174D02*
X15091610Y-9219698D01*
X15301134Y-9333984D02*
X15282087Y-9324460D01*
X15282087Y-9324460D02*
X15272563Y-9314936D01*
X15272563Y-9314936D02*
X15263039Y-9295889D01*
X15263039Y-9295889D02*
X15263039Y-9238746D01*
X15263039Y-9238746D02*
X15272563Y-9219698D01*
X15272563Y-9219698D02*
X15282087Y-9210174D01*
X15282087Y-9210174D02*
X15301134Y-9200650D01*
X15301134Y-9200650D02*
X15329706Y-9200650D01*
X15329706Y-9200650D02*
X15348753Y-9210174D01*
X15348753Y-9210174D02*
X15358277Y-9219698D01*
X15358277Y-9219698D02*
X15367801Y-9238746D01*
X15367801Y-9238746D02*
X15367801Y-9295889D01*
X15367801Y-9295889D02*
X15358277Y-9314936D01*
X15358277Y-9314936D02*
X15348753Y-9324460D01*
X15348753Y-9324460D02*
X15329706Y-9333984D01*
X15329706Y-9333984D02*
X15301134Y-9333984D01*
X15482087Y-9333984D02*
X15463039Y-9324460D01*
X15463039Y-9324460D02*
X15453515Y-9305412D01*
X15453515Y-9305412D02*
X15453515Y-9133984D01*
X15634468Y-9324460D02*
X15615420Y-9333984D01*
X15615420Y-9333984D02*
X15577325Y-9333984D01*
X15577325Y-9333984D02*
X15558277Y-9324460D01*
X15558277Y-9324460D02*
X15548753Y-9305412D01*
X15548753Y-9305412D02*
X15548753Y-9229222D01*
X15548753Y-9229222D02*
X15558277Y-9210174D01*
X15558277Y-9210174D02*
X15577325Y-9200650D01*
X15577325Y-9200650D02*
X15615420Y-9200650D01*
X15615420Y-9200650D02*
X15634468Y-9210174D01*
X15634468Y-9210174D02*
X15643991Y-9229222D01*
X15643991Y-9229222D02*
X15643991Y-9248270D01*
X15643991Y-9248270D02*
X15548753Y-9267317D01*
X15720182Y-9324460D02*
X15739230Y-9333984D01*
X15739230Y-9333984D02*
X15777325Y-9333984D01*
X15777325Y-9333984D02*
X15796372Y-9324460D01*
X15796372Y-9324460D02*
X15805896Y-9305412D01*
X15805896Y-9305412D02*
X15805896Y-9295889D01*
X15805896Y-9295889D02*
X15796372Y-9276841D01*
X15796372Y-9276841D02*
X15777325Y-9267317D01*
X15777325Y-9267317D02*
X15748753Y-9267317D01*
X15748753Y-9267317D02*
X15729706Y-9257793D01*
X15729706Y-9257793D02*
X15720182Y-9238746D01*
X15720182Y-9238746D02*
X15720182Y-9229222D01*
X15720182Y-9229222D02*
X15729706Y-9210174D01*
X15729706Y-9210174D02*
X15748753Y-9200650D01*
X15748753Y-9200650D02*
X15777325Y-9200650D01*
X15777325Y-9200650D02*
X15796372Y-9210174D01*
X15872563Y-9410174D02*
X15882087Y-9400650D01*
X15882087Y-9400650D02*
X15901134Y-9372079D01*
X15901134Y-9372079D02*
X15910658Y-9353031D01*
X15910658Y-9353031D02*
X15920182Y-9324460D01*
X15920182Y-9324460D02*
X15929706Y-9276841D01*
X15929706Y-9276841D02*
X15929706Y-9238746D01*
X15929706Y-9238746D02*
X15920182Y-9191127D01*
X15920182Y-9191127D02*
X15910658Y-9162555D01*
X15910658Y-9162555D02*
X15901134Y-9143508D01*
X15901134Y-9143508D02*
X15882087Y-9114936D01*
X15882087Y-9114936D02*
X15872563Y-9105412D01*
D12*
X11097500Y-9506500D02*
G75*
G03*
X11027500Y-9506500I-35000J0D01*
G01*
X11027500Y-9506500D02*
G75*
G03*
X11097500Y-9506500I35000J0D01*
G01*
D11*
X11396372Y-9397984D02*
X11415420Y-9397984D01*
X11415420Y-9397984D02*
X11434467Y-9407508D01*
X11434467Y-9407508D02*
X11443991Y-9417031D01*
X11443991Y-9417031D02*
X11453515Y-9436079D01*
X11453515Y-9436079D02*
X11463039Y-9474174D01*
X11463039Y-9474174D02*
X11463039Y-9521793D01*
X11463039Y-9521793D02*
X11453515Y-9559889D01*
X11453515Y-9559889D02*
X11443991Y-9578936D01*
X11443991Y-9578936D02*
X11434467Y-9588460D01*
X11434467Y-9588460D02*
X11415420Y-9597984D01*
X11415420Y-9597984D02*
X11396372Y-9597984D01*
X11396372Y-9597984D02*
X11377324Y-9588460D01*
X11377324Y-9588460D02*
X11367801Y-9578936D01*
X11367801Y-9578936D02*
X11358277Y-9559889D01*
X11358277Y-9559889D02*
X11348753Y-9521793D01*
X11348753Y-9521793D02*
X11348753Y-9474174D01*
X11348753Y-9474174D02*
X11358277Y-9436079D01*
X11358277Y-9436079D02*
X11367801Y-9417031D01*
X11367801Y-9417031D02*
X11377324Y-9407508D01*
X11377324Y-9407508D02*
X11396372Y-9397984D01*
X11548753Y-9578936D02*
X11558277Y-9588460D01*
X11558277Y-9588460D02*
X11548753Y-9597984D01*
X11548753Y-9597984D02*
X11539229Y-9588460D01*
X11539229Y-9588460D02*
X11548753Y-9578936D01*
X11548753Y-9578936D02*
X11548753Y-9597984D01*
X11624943Y-9397984D02*
X11758277Y-9397984D01*
X11758277Y-9397984D02*
X11672562Y-9597984D01*
X11872562Y-9397984D02*
X11891610Y-9397984D01*
X11891610Y-9397984D02*
X11910658Y-9407508D01*
X11910658Y-9407508D02*
X11920182Y-9417031D01*
X11920182Y-9417031D02*
X11929705Y-9436079D01*
X11929705Y-9436079D02*
X11939229Y-9474174D01*
X11939229Y-9474174D02*
X11939229Y-9521793D01*
X11939229Y-9521793D02*
X11929705Y-9559889D01*
X11929705Y-9559889D02*
X11920182Y-9578936D01*
X11920182Y-9578936D02*
X11910658Y-9588460D01*
X11910658Y-9588460D02*
X11891610Y-9597984D01*
X11891610Y-9597984D02*
X11872562Y-9597984D01*
X11872562Y-9597984D02*
X11853515Y-9588460D01*
X11853515Y-9588460D02*
X11843991Y-9578936D01*
X11843991Y-9578936D02*
X11834467Y-9559889D01*
X11834467Y-9559889D02*
X11824943Y-9521793D01*
X11824943Y-9521793D02*
X11824943Y-9474174D01*
X11824943Y-9474174D02*
X11834467Y-9436079D01*
X11834467Y-9436079D02*
X11843991Y-9417031D01*
X11843991Y-9417031D02*
X11853515Y-9407508D01*
X11853515Y-9407508D02*
X11872562Y-9397984D01*
X12063039Y-9397984D02*
X12082086Y-9397984D01*
X12082086Y-9397984D02*
X12101134Y-9407508D01*
X12101134Y-9407508D02*
X12110658Y-9417031D01*
X12110658Y-9417031D02*
X12120182Y-9436079D01*
X12120182Y-9436079D02*
X12129705Y-9474174D01*
X12129705Y-9474174D02*
X12129705Y-9521793D01*
X12129705Y-9521793D02*
X12120182Y-9559889D01*
X12120182Y-9559889D02*
X12110658Y-9578936D01*
X12110658Y-9578936D02*
X12101134Y-9588460D01*
X12101134Y-9588460D02*
X12082086Y-9597984D01*
X12082086Y-9597984D02*
X12063039Y-9597984D01*
X12063039Y-9597984D02*
X12043991Y-9588460D01*
X12043991Y-9588460D02*
X12034467Y-9578936D01*
X12034467Y-9578936D02*
X12024943Y-9559889D01*
X12024943Y-9559889D02*
X12015420Y-9521793D01*
X12015420Y-9521793D02*
X12015420Y-9474174D01*
X12015420Y-9474174D02*
X12024943Y-9436079D01*
X12024943Y-9436079D02*
X12034467Y-9417031D01*
X12034467Y-9417031D02*
X12043991Y-9407508D01*
X12043991Y-9407508D02*
X12063039Y-9397984D01*
X12215420Y-9597984D02*
X12215420Y-9464650D01*
X12215420Y-9483698D02*
X12224943Y-9474174D01*
X12224943Y-9474174D02*
X12243991Y-9464650D01*
X12243991Y-9464650D02*
X12272563Y-9464650D01*
X12272563Y-9464650D02*
X12291610Y-9474174D01*
X12291610Y-9474174D02*
X12301134Y-9493222D01*
X12301134Y-9493222D02*
X12301134Y-9597984D01*
X12301134Y-9493222D02*
X12310658Y-9474174D01*
X12310658Y-9474174D02*
X12329705Y-9464650D01*
X12329705Y-9464650D02*
X12358277Y-9464650D01*
X12358277Y-9464650D02*
X12377324Y-9474174D01*
X12377324Y-9474174D02*
X12386848Y-9493222D01*
X12386848Y-9493222D02*
X12386848Y-9597984D01*
X12482086Y-9597984D02*
X12482086Y-9464650D01*
X12482086Y-9483698D02*
X12491610Y-9474174D01*
X12491610Y-9474174D02*
X12510658Y-9464650D01*
X12510658Y-9464650D02*
X12539229Y-9464650D01*
X12539229Y-9464650D02*
X12558277Y-9474174D01*
X12558277Y-9474174D02*
X12567801Y-9493222D01*
X12567801Y-9493222D02*
X12567801Y-9597984D01*
X12567801Y-9493222D02*
X12577324Y-9474174D01*
X12577324Y-9474174D02*
X12596372Y-9464650D01*
X12596372Y-9464650D02*
X12624943Y-9464650D01*
X12624943Y-9464650D02*
X12643991Y-9474174D01*
X12643991Y-9474174D02*
X12653515Y-9493222D01*
X12653515Y-9493222D02*
X12653515Y-9597984D01*
X13043991Y-9388460D02*
X12872563Y-9645603D01*
X13301134Y-9397984D02*
X13320182Y-9397984D01*
X13320182Y-9397984D02*
X13339229Y-9407508D01*
X13339229Y-9407508D02*
X13348753Y-9417031D01*
X13348753Y-9417031D02*
X13358277Y-9436079D01*
X13358277Y-9436079D02*
X13367801Y-9474174D01*
X13367801Y-9474174D02*
X13367801Y-9521793D01*
X13367801Y-9521793D02*
X13358277Y-9559889D01*
X13358277Y-9559889D02*
X13348753Y-9578936D01*
X13348753Y-9578936D02*
X13339229Y-9588460D01*
X13339229Y-9588460D02*
X13320182Y-9597984D01*
X13320182Y-9597984D02*
X13301134Y-9597984D01*
X13301134Y-9597984D02*
X13282086Y-9588460D01*
X13282086Y-9588460D02*
X13272563Y-9578936D01*
X13272563Y-9578936D02*
X13263039Y-9559889D01*
X13263039Y-9559889D02*
X13253515Y-9521793D01*
X13253515Y-9521793D02*
X13253515Y-9474174D01*
X13253515Y-9474174D02*
X13263039Y-9436079D01*
X13263039Y-9436079D02*
X13272563Y-9417031D01*
X13272563Y-9417031D02*
X13282086Y-9407508D01*
X13282086Y-9407508D02*
X13301134Y-9397984D01*
X13453515Y-9578936D02*
X13463039Y-9588460D01*
X13463039Y-9588460D02*
X13453515Y-9597984D01*
X13453515Y-9597984D02*
X13443991Y-9588460D01*
X13443991Y-9588460D02*
X13453515Y-9578936D01*
X13453515Y-9578936D02*
X13453515Y-9597984D01*
X13586848Y-9397984D02*
X13605896Y-9397984D01*
X13605896Y-9397984D02*
X13624944Y-9407508D01*
X13624944Y-9407508D02*
X13634467Y-9417031D01*
X13634467Y-9417031D02*
X13643991Y-9436079D01*
X13643991Y-9436079D02*
X13653515Y-9474174D01*
X13653515Y-9474174D02*
X13653515Y-9521793D01*
X13653515Y-9521793D02*
X13643991Y-9559889D01*
X13643991Y-9559889D02*
X13634467Y-9578936D01*
X13634467Y-9578936D02*
X13624944Y-9588460D01*
X13624944Y-9588460D02*
X13605896Y-9597984D01*
X13605896Y-9597984D02*
X13586848Y-9597984D01*
X13586848Y-9597984D02*
X13567801Y-9588460D01*
X13567801Y-9588460D02*
X13558277Y-9578936D01*
X13558277Y-9578936D02*
X13548753Y-9559889D01*
X13548753Y-9559889D02*
X13539229Y-9521793D01*
X13539229Y-9521793D02*
X13539229Y-9474174D01*
X13539229Y-9474174D02*
X13548753Y-9436079D01*
X13548753Y-9436079D02*
X13558277Y-9417031D01*
X13558277Y-9417031D02*
X13567801Y-9407508D01*
X13567801Y-9407508D02*
X13586848Y-9397984D01*
X13729706Y-9417031D02*
X13739229Y-9407508D01*
X13739229Y-9407508D02*
X13758277Y-9397984D01*
X13758277Y-9397984D02*
X13805896Y-9397984D01*
X13805896Y-9397984D02*
X13824944Y-9407508D01*
X13824944Y-9407508D02*
X13834467Y-9417031D01*
X13834467Y-9417031D02*
X13843991Y-9436079D01*
X13843991Y-9436079D02*
X13843991Y-9455127D01*
X13843991Y-9455127D02*
X13834467Y-9483698D01*
X13834467Y-9483698D02*
X13720182Y-9597984D01*
X13720182Y-9597984D02*
X13843991Y-9597984D01*
X13910658Y-9397984D02*
X14043991Y-9397984D01*
X14043991Y-9397984D02*
X13958277Y-9597984D01*
X14205896Y-9397984D02*
X14167801Y-9397984D01*
X14167801Y-9397984D02*
X14148753Y-9407508D01*
X14148753Y-9407508D02*
X14139229Y-9417031D01*
X14139229Y-9417031D02*
X14120182Y-9445603D01*
X14120182Y-9445603D02*
X14110658Y-9483698D01*
X14110658Y-9483698D02*
X14110658Y-9559889D01*
X14110658Y-9559889D02*
X14120182Y-9578936D01*
X14120182Y-9578936D02*
X14129706Y-9588460D01*
X14129706Y-9588460D02*
X14148753Y-9597984D01*
X14148753Y-9597984D02*
X14186848Y-9597984D01*
X14186848Y-9597984D02*
X14205896Y-9588460D01*
X14205896Y-9588460D02*
X14215420Y-9578936D01*
X14215420Y-9578936D02*
X14224944Y-9559889D01*
X14224944Y-9559889D02*
X14224944Y-9512270D01*
X14224944Y-9512270D02*
X14215420Y-9493222D01*
X14215420Y-9493222D02*
X14205896Y-9483698D01*
X14205896Y-9483698D02*
X14186848Y-9474174D01*
X14186848Y-9474174D02*
X14148753Y-9474174D01*
X14148753Y-9474174D02*
X14129706Y-9483698D01*
X14129706Y-9483698D02*
X14120182Y-9493222D01*
X14120182Y-9493222D02*
X14110658Y-9512270D01*
X14301134Y-9397984D02*
X14301134Y-9436079D01*
X14377325Y-9397984D02*
X14377325Y-9436079D01*
X14672563Y-9674174D02*
X14663039Y-9664650D01*
X14663039Y-9664650D02*
X14643991Y-9636079D01*
X14643991Y-9636079D02*
X14634468Y-9617031D01*
X14634468Y-9617031D02*
X14624944Y-9588460D01*
X14624944Y-9588460D02*
X14615420Y-9540841D01*
X14615420Y-9540841D02*
X14615420Y-9502746D01*
X14615420Y-9502746D02*
X14624944Y-9455127D01*
X14624944Y-9455127D02*
X14634468Y-9426555D01*
X14634468Y-9426555D02*
X14643991Y-9407508D01*
X14643991Y-9407508D02*
X14663039Y-9378936D01*
X14663039Y-9378936D02*
X14672563Y-9369412D01*
X14729706Y-9397984D02*
X14853515Y-9397984D01*
X14853515Y-9397984D02*
X14786848Y-9474174D01*
X14786848Y-9474174D02*
X14815420Y-9474174D01*
X14815420Y-9474174D02*
X14834468Y-9483698D01*
X14834468Y-9483698D02*
X14843991Y-9493222D01*
X14843991Y-9493222D02*
X14853515Y-9512270D01*
X14853515Y-9512270D02*
X14853515Y-9559889D01*
X14853515Y-9559889D02*
X14843991Y-9578936D01*
X14843991Y-9578936D02*
X14834468Y-9588460D01*
X14834468Y-9588460D02*
X14815420Y-9597984D01*
X14815420Y-9597984D02*
X14758277Y-9597984D01*
X14758277Y-9597984D02*
X14739229Y-9588460D01*
X14739229Y-9588460D02*
X14729706Y-9578936D01*
X15091610Y-9597984D02*
X15091610Y-9397984D01*
X15177325Y-9597984D02*
X15177325Y-9493222D01*
X15177325Y-9493222D02*
X15167801Y-9474174D01*
X15167801Y-9474174D02*
X15148753Y-9464650D01*
X15148753Y-9464650D02*
X15120182Y-9464650D01*
X15120182Y-9464650D02*
X15101134Y-9474174D01*
X15101134Y-9474174D02*
X15091610Y-9483698D01*
X15301134Y-9597984D02*
X15282087Y-9588460D01*
X15282087Y-9588460D02*
X15272563Y-9578936D01*
X15272563Y-9578936D02*
X15263039Y-9559889D01*
X15263039Y-9559889D02*
X15263039Y-9502746D01*
X15263039Y-9502746D02*
X15272563Y-9483698D01*
X15272563Y-9483698D02*
X15282087Y-9474174D01*
X15282087Y-9474174D02*
X15301134Y-9464650D01*
X15301134Y-9464650D02*
X15329706Y-9464650D01*
X15329706Y-9464650D02*
X15348753Y-9474174D01*
X15348753Y-9474174D02*
X15358277Y-9483698D01*
X15358277Y-9483698D02*
X15367801Y-9502746D01*
X15367801Y-9502746D02*
X15367801Y-9559889D01*
X15367801Y-9559889D02*
X15358277Y-9578936D01*
X15358277Y-9578936D02*
X15348753Y-9588460D01*
X15348753Y-9588460D02*
X15329706Y-9597984D01*
X15329706Y-9597984D02*
X15301134Y-9597984D01*
X15482087Y-9597984D02*
X15463039Y-9588460D01*
X15463039Y-9588460D02*
X15453515Y-9569412D01*
X15453515Y-9569412D02*
X15453515Y-9397984D01*
X15634468Y-9588460D02*
X15615420Y-9597984D01*
X15615420Y-9597984D02*
X15577325Y-9597984D01*
X15577325Y-9597984D02*
X15558277Y-9588460D01*
X15558277Y-9588460D02*
X15548753Y-9569412D01*
X15548753Y-9569412D02*
X15548753Y-9493222D01*
X15548753Y-9493222D02*
X15558277Y-9474174D01*
X15558277Y-9474174D02*
X15577325Y-9464650D01*
X15577325Y-9464650D02*
X15615420Y-9464650D01*
X15615420Y-9464650D02*
X15634468Y-9474174D01*
X15634468Y-9474174D02*
X15643991Y-9493222D01*
X15643991Y-9493222D02*
X15643991Y-9512270D01*
X15643991Y-9512270D02*
X15548753Y-9531317D01*
X15720182Y-9588460D02*
X15739230Y-9597984D01*
X15739230Y-9597984D02*
X15777325Y-9597984D01*
X15777325Y-9597984D02*
X15796372Y-9588460D01*
X15796372Y-9588460D02*
X15805896Y-9569412D01*
X15805896Y-9569412D02*
X15805896Y-9559889D01*
X15805896Y-9559889D02*
X15796372Y-9540841D01*
X15796372Y-9540841D02*
X15777325Y-9531317D01*
X15777325Y-9531317D02*
X15748753Y-9531317D01*
X15748753Y-9531317D02*
X15729706Y-9521793D01*
X15729706Y-9521793D02*
X15720182Y-9502746D01*
X15720182Y-9502746D02*
X15720182Y-9493222D01*
X15720182Y-9493222D02*
X15729706Y-9474174D01*
X15729706Y-9474174D02*
X15748753Y-9464650D01*
X15748753Y-9464650D02*
X15777325Y-9464650D01*
X15777325Y-9464650D02*
X15796372Y-9474174D01*
X15872563Y-9674174D02*
X15882087Y-9664650D01*
X15882087Y-9664650D02*
X15901134Y-9636079D01*
X15901134Y-9636079D02*
X15910658Y-9617031D01*
X15910658Y-9617031D02*
X15920182Y-9588460D01*
X15920182Y-9588460D02*
X15929706Y-9540841D01*
X15929706Y-9540841D02*
X15929706Y-9502746D01*
X15929706Y-9502746D02*
X15920182Y-9455127D01*
X15920182Y-9455127D02*
X15910658Y-9426555D01*
X15910658Y-9426555D02*
X15901134Y-9407508D01*
X15901134Y-9407508D02*
X15882087Y-9378936D01*
X15882087Y-9378936D02*
X15872563Y-9369412D01*
D12*
X11047500Y-9720500D02*
X11047500Y-9820500D01*
X10997500Y-9770500D02*
X11097500Y-9770500D01*
D11*
X11463039Y-9861984D02*
X11348753Y-9861984D01*
X11405896Y-9861984D02*
X11405896Y-9661984D01*
X11405896Y-9661984D02*
X11386848Y-9690555D01*
X11386848Y-9690555D02*
X11367801Y-9709603D01*
X11367801Y-9709603D02*
X11348753Y-9719127D01*
X11548753Y-9842936D02*
X11558277Y-9852460D01*
X11558277Y-9852460D02*
X11548753Y-9861984D01*
X11548753Y-9861984D02*
X11539229Y-9852460D01*
X11539229Y-9852460D02*
X11548753Y-9842936D01*
X11548753Y-9842936D02*
X11548753Y-9861984D01*
X11682086Y-9661984D02*
X11701134Y-9661984D01*
X11701134Y-9661984D02*
X11720182Y-9671508D01*
X11720182Y-9671508D02*
X11729705Y-9681031D01*
X11729705Y-9681031D02*
X11739229Y-9700079D01*
X11739229Y-9700079D02*
X11748753Y-9738174D01*
X11748753Y-9738174D02*
X11748753Y-9785793D01*
X11748753Y-9785793D02*
X11739229Y-9823889D01*
X11739229Y-9823889D02*
X11729705Y-9842936D01*
X11729705Y-9842936D02*
X11720182Y-9852460D01*
X11720182Y-9852460D02*
X11701134Y-9861984D01*
X11701134Y-9861984D02*
X11682086Y-9861984D01*
X11682086Y-9861984D02*
X11663039Y-9852460D01*
X11663039Y-9852460D02*
X11653515Y-9842936D01*
X11653515Y-9842936D02*
X11643991Y-9823889D01*
X11643991Y-9823889D02*
X11634467Y-9785793D01*
X11634467Y-9785793D02*
X11634467Y-9738174D01*
X11634467Y-9738174D02*
X11643991Y-9700079D01*
X11643991Y-9700079D02*
X11653515Y-9681031D01*
X11653515Y-9681031D02*
X11663039Y-9671508D01*
X11663039Y-9671508D02*
X11682086Y-9661984D01*
X11872562Y-9661984D02*
X11891610Y-9661984D01*
X11891610Y-9661984D02*
X11910658Y-9671508D01*
X11910658Y-9671508D02*
X11920182Y-9681031D01*
X11920182Y-9681031D02*
X11929705Y-9700079D01*
X11929705Y-9700079D02*
X11939229Y-9738174D01*
X11939229Y-9738174D02*
X11939229Y-9785793D01*
X11939229Y-9785793D02*
X11929705Y-9823889D01*
X11929705Y-9823889D02*
X11920182Y-9842936D01*
X11920182Y-9842936D02*
X11910658Y-9852460D01*
X11910658Y-9852460D02*
X11891610Y-9861984D01*
X11891610Y-9861984D02*
X11872562Y-9861984D01*
X11872562Y-9861984D02*
X11853515Y-9852460D01*
X11853515Y-9852460D02*
X11843991Y-9842936D01*
X11843991Y-9842936D02*
X11834467Y-9823889D01*
X11834467Y-9823889D02*
X11824943Y-9785793D01*
X11824943Y-9785793D02*
X11824943Y-9738174D01*
X11824943Y-9738174D02*
X11834467Y-9700079D01*
X11834467Y-9700079D02*
X11843991Y-9681031D01*
X11843991Y-9681031D02*
X11853515Y-9671508D01*
X11853515Y-9671508D02*
X11872562Y-9661984D01*
X12063039Y-9661984D02*
X12082086Y-9661984D01*
X12082086Y-9661984D02*
X12101134Y-9671508D01*
X12101134Y-9671508D02*
X12110658Y-9681031D01*
X12110658Y-9681031D02*
X12120182Y-9700079D01*
X12120182Y-9700079D02*
X12129705Y-9738174D01*
X12129705Y-9738174D02*
X12129705Y-9785793D01*
X12129705Y-9785793D02*
X12120182Y-9823889D01*
X12120182Y-9823889D02*
X12110658Y-9842936D01*
X12110658Y-9842936D02*
X12101134Y-9852460D01*
X12101134Y-9852460D02*
X12082086Y-9861984D01*
X12082086Y-9861984D02*
X12063039Y-9861984D01*
X12063039Y-9861984D02*
X12043991Y-9852460D01*
X12043991Y-9852460D02*
X12034467Y-9842936D01*
X12034467Y-9842936D02*
X12024943Y-9823889D01*
X12024943Y-9823889D02*
X12015420Y-9785793D01*
X12015420Y-9785793D02*
X12015420Y-9738174D01*
X12015420Y-9738174D02*
X12024943Y-9700079D01*
X12024943Y-9700079D02*
X12034467Y-9681031D01*
X12034467Y-9681031D02*
X12043991Y-9671508D01*
X12043991Y-9671508D02*
X12063039Y-9661984D01*
X12215420Y-9861984D02*
X12215420Y-9728650D01*
X12215420Y-9747698D02*
X12224943Y-9738174D01*
X12224943Y-9738174D02*
X12243991Y-9728650D01*
X12243991Y-9728650D02*
X12272563Y-9728650D01*
X12272563Y-9728650D02*
X12291610Y-9738174D01*
X12291610Y-9738174D02*
X12301134Y-9757222D01*
X12301134Y-9757222D02*
X12301134Y-9861984D01*
X12301134Y-9757222D02*
X12310658Y-9738174D01*
X12310658Y-9738174D02*
X12329705Y-9728650D01*
X12329705Y-9728650D02*
X12358277Y-9728650D01*
X12358277Y-9728650D02*
X12377324Y-9738174D01*
X12377324Y-9738174D02*
X12386848Y-9757222D01*
X12386848Y-9757222D02*
X12386848Y-9861984D01*
X12482086Y-9861984D02*
X12482086Y-9728650D01*
X12482086Y-9747698D02*
X12491610Y-9738174D01*
X12491610Y-9738174D02*
X12510658Y-9728650D01*
X12510658Y-9728650D02*
X12539229Y-9728650D01*
X12539229Y-9728650D02*
X12558277Y-9738174D01*
X12558277Y-9738174D02*
X12567801Y-9757222D01*
X12567801Y-9757222D02*
X12567801Y-9861984D01*
X12567801Y-9757222D02*
X12577324Y-9738174D01*
X12577324Y-9738174D02*
X12596372Y-9728650D01*
X12596372Y-9728650D02*
X12624943Y-9728650D01*
X12624943Y-9728650D02*
X12643991Y-9738174D01*
X12643991Y-9738174D02*
X12653515Y-9757222D01*
X12653515Y-9757222D02*
X12653515Y-9861984D01*
X13043991Y-9652460D02*
X12872563Y-9909603D01*
X13301134Y-9661984D02*
X13320182Y-9661984D01*
X13320182Y-9661984D02*
X13339229Y-9671508D01*
X13339229Y-9671508D02*
X13348753Y-9681031D01*
X13348753Y-9681031D02*
X13358277Y-9700079D01*
X13358277Y-9700079D02*
X13367801Y-9738174D01*
X13367801Y-9738174D02*
X13367801Y-9785793D01*
X13367801Y-9785793D02*
X13358277Y-9823889D01*
X13358277Y-9823889D02*
X13348753Y-9842936D01*
X13348753Y-9842936D02*
X13339229Y-9852460D01*
X13339229Y-9852460D02*
X13320182Y-9861984D01*
X13320182Y-9861984D02*
X13301134Y-9861984D01*
X13301134Y-9861984D02*
X13282086Y-9852460D01*
X13282086Y-9852460D02*
X13272563Y-9842936D01*
X13272563Y-9842936D02*
X13263039Y-9823889D01*
X13263039Y-9823889D02*
X13253515Y-9785793D01*
X13253515Y-9785793D02*
X13253515Y-9738174D01*
X13253515Y-9738174D02*
X13263039Y-9700079D01*
X13263039Y-9700079D02*
X13272563Y-9681031D01*
X13272563Y-9681031D02*
X13282086Y-9671508D01*
X13282086Y-9671508D02*
X13301134Y-9661984D01*
X13453515Y-9842936D02*
X13463039Y-9852460D01*
X13463039Y-9852460D02*
X13453515Y-9861984D01*
X13453515Y-9861984D02*
X13443991Y-9852460D01*
X13443991Y-9852460D02*
X13453515Y-9842936D01*
X13453515Y-9842936D02*
X13453515Y-9861984D01*
X13586848Y-9661984D02*
X13605896Y-9661984D01*
X13605896Y-9661984D02*
X13624944Y-9671508D01*
X13624944Y-9671508D02*
X13634467Y-9681031D01*
X13634467Y-9681031D02*
X13643991Y-9700079D01*
X13643991Y-9700079D02*
X13653515Y-9738174D01*
X13653515Y-9738174D02*
X13653515Y-9785793D01*
X13653515Y-9785793D02*
X13643991Y-9823889D01*
X13643991Y-9823889D02*
X13634467Y-9842936D01*
X13634467Y-9842936D02*
X13624944Y-9852460D01*
X13624944Y-9852460D02*
X13605896Y-9861984D01*
X13605896Y-9861984D02*
X13586848Y-9861984D01*
X13586848Y-9861984D02*
X13567801Y-9852460D01*
X13567801Y-9852460D02*
X13558277Y-9842936D01*
X13558277Y-9842936D02*
X13548753Y-9823889D01*
X13548753Y-9823889D02*
X13539229Y-9785793D01*
X13539229Y-9785793D02*
X13539229Y-9738174D01*
X13539229Y-9738174D02*
X13548753Y-9700079D01*
X13548753Y-9700079D02*
X13558277Y-9681031D01*
X13558277Y-9681031D02*
X13567801Y-9671508D01*
X13567801Y-9671508D02*
X13586848Y-9661984D01*
X13720182Y-9661984D02*
X13843991Y-9661984D01*
X13843991Y-9661984D02*
X13777325Y-9738174D01*
X13777325Y-9738174D02*
X13805896Y-9738174D01*
X13805896Y-9738174D02*
X13824944Y-9747698D01*
X13824944Y-9747698D02*
X13834467Y-9757222D01*
X13834467Y-9757222D02*
X13843991Y-9776270D01*
X13843991Y-9776270D02*
X13843991Y-9823889D01*
X13843991Y-9823889D02*
X13834467Y-9842936D01*
X13834467Y-9842936D02*
X13824944Y-9852460D01*
X13824944Y-9852460D02*
X13805896Y-9861984D01*
X13805896Y-9861984D02*
X13748753Y-9861984D01*
X13748753Y-9861984D02*
X13729706Y-9852460D01*
X13729706Y-9852460D02*
X13720182Y-9842936D01*
X13939229Y-9861984D02*
X13977325Y-9861984D01*
X13977325Y-9861984D02*
X13996372Y-9852460D01*
X13996372Y-9852460D02*
X14005896Y-9842936D01*
X14005896Y-9842936D02*
X14024944Y-9814365D01*
X14024944Y-9814365D02*
X14034467Y-9776270D01*
X14034467Y-9776270D02*
X14034467Y-9700079D01*
X14034467Y-9700079D02*
X14024944Y-9681031D01*
X14024944Y-9681031D02*
X14015420Y-9671508D01*
X14015420Y-9671508D02*
X13996372Y-9661984D01*
X13996372Y-9661984D02*
X13958277Y-9661984D01*
X13958277Y-9661984D02*
X13939229Y-9671508D01*
X13939229Y-9671508D02*
X13929706Y-9681031D01*
X13929706Y-9681031D02*
X13920182Y-9700079D01*
X13920182Y-9700079D02*
X13920182Y-9747698D01*
X13920182Y-9747698D02*
X13929706Y-9766746D01*
X13929706Y-9766746D02*
X13939229Y-9776270D01*
X13939229Y-9776270D02*
X13958277Y-9785793D01*
X13958277Y-9785793D02*
X13996372Y-9785793D01*
X13996372Y-9785793D02*
X14015420Y-9776270D01*
X14015420Y-9776270D02*
X14024944Y-9766746D01*
X14024944Y-9766746D02*
X14034467Y-9747698D01*
X14205896Y-9728650D02*
X14205896Y-9861984D01*
X14158277Y-9652460D02*
X14110658Y-9795317D01*
X14110658Y-9795317D02*
X14234467Y-9795317D01*
X14301134Y-9661984D02*
X14301134Y-9700079D01*
X14377325Y-9661984D02*
X14377325Y-9700079D01*
X14672563Y-9938174D02*
X14663039Y-9928650D01*
X14663039Y-9928650D02*
X14643991Y-9900079D01*
X14643991Y-9900079D02*
X14634468Y-9881031D01*
X14634468Y-9881031D02*
X14624944Y-9852460D01*
X14624944Y-9852460D02*
X14615420Y-9804841D01*
X14615420Y-9804841D02*
X14615420Y-9766746D01*
X14615420Y-9766746D02*
X14624944Y-9719127D01*
X14624944Y-9719127D02*
X14634468Y-9690555D01*
X14634468Y-9690555D02*
X14643991Y-9671508D01*
X14643991Y-9671508D02*
X14663039Y-9642936D01*
X14663039Y-9642936D02*
X14672563Y-9633412D01*
X14853515Y-9861984D02*
X14739229Y-9861984D01*
X14796372Y-9861984D02*
X14796372Y-9661984D01*
X14796372Y-9661984D02*
X14777325Y-9690555D01*
X14777325Y-9690555D02*
X14758277Y-9709603D01*
X14758277Y-9709603D02*
X14739229Y-9719127D01*
X14929706Y-9681031D02*
X14939229Y-9671508D01*
X14939229Y-9671508D02*
X14958277Y-9661984D01*
X14958277Y-9661984D02*
X15005896Y-9661984D01*
X15005896Y-9661984D02*
X15024944Y-9671508D01*
X15024944Y-9671508D02*
X15034468Y-9681031D01*
X15034468Y-9681031D02*
X15043991Y-9700079D01*
X15043991Y-9700079D02*
X15043991Y-9719127D01*
X15043991Y-9719127D02*
X15034468Y-9747698D01*
X15034468Y-9747698D02*
X14920182Y-9861984D01*
X14920182Y-9861984D02*
X15043991Y-9861984D01*
X15282087Y-9861984D02*
X15282087Y-9661984D01*
X15367801Y-9861984D02*
X15367801Y-9757222D01*
X15367801Y-9757222D02*
X15358277Y-9738174D01*
X15358277Y-9738174D02*
X15339230Y-9728650D01*
X15339230Y-9728650D02*
X15310658Y-9728650D01*
X15310658Y-9728650D02*
X15291610Y-9738174D01*
X15291610Y-9738174D02*
X15282087Y-9747698D01*
X15491610Y-9861984D02*
X15472563Y-9852460D01*
X15472563Y-9852460D02*
X15463039Y-9842936D01*
X15463039Y-9842936D02*
X15453515Y-9823889D01*
X15453515Y-9823889D02*
X15453515Y-9766746D01*
X15453515Y-9766746D02*
X15463039Y-9747698D01*
X15463039Y-9747698D02*
X15472563Y-9738174D01*
X15472563Y-9738174D02*
X15491610Y-9728650D01*
X15491610Y-9728650D02*
X15520182Y-9728650D01*
X15520182Y-9728650D02*
X15539230Y-9738174D01*
X15539230Y-9738174D02*
X15548753Y-9747698D01*
X15548753Y-9747698D02*
X15558277Y-9766746D01*
X15558277Y-9766746D02*
X15558277Y-9823889D01*
X15558277Y-9823889D02*
X15548753Y-9842936D01*
X15548753Y-9842936D02*
X15539230Y-9852460D01*
X15539230Y-9852460D02*
X15520182Y-9861984D01*
X15520182Y-9861984D02*
X15491610Y-9861984D01*
X15672563Y-9861984D02*
X15653515Y-9852460D01*
X15653515Y-9852460D02*
X15643991Y-9833412D01*
X15643991Y-9833412D02*
X15643991Y-9661984D01*
X15824944Y-9852460D02*
X15805896Y-9861984D01*
X15805896Y-9861984D02*
X15767801Y-9861984D01*
X15767801Y-9861984D02*
X15748753Y-9852460D01*
X15748753Y-9852460D02*
X15739230Y-9833412D01*
X15739230Y-9833412D02*
X15739230Y-9757222D01*
X15739230Y-9757222D02*
X15748753Y-9738174D01*
X15748753Y-9738174D02*
X15767801Y-9728650D01*
X15767801Y-9728650D02*
X15805896Y-9728650D01*
X15805896Y-9728650D02*
X15824944Y-9738174D01*
X15824944Y-9738174D02*
X15834468Y-9757222D01*
X15834468Y-9757222D02*
X15834468Y-9776270D01*
X15834468Y-9776270D02*
X15739230Y-9795317D01*
X15910658Y-9852460D02*
X15929706Y-9861984D01*
X15929706Y-9861984D02*
X15967801Y-9861984D01*
X15967801Y-9861984D02*
X15986849Y-9852460D01*
X15986849Y-9852460D02*
X15996372Y-9833412D01*
X15996372Y-9833412D02*
X15996372Y-9823889D01*
X15996372Y-9823889D02*
X15986849Y-9804841D01*
X15986849Y-9804841D02*
X15967801Y-9795317D01*
X15967801Y-9795317D02*
X15939230Y-9795317D01*
X15939230Y-9795317D02*
X15920182Y-9785793D01*
X15920182Y-9785793D02*
X15910658Y-9766746D01*
X15910658Y-9766746D02*
X15910658Y-9757222D01*
X15910658Y-9757222D02*
X15920182Y-9738174D01*
X15920182Y-9738174D02*
X15939230Y-9728650D01*
X15939230Y-9728650D02*
X15967801Y-9728650D01*
X15967801Y-9728650D02*
X15986849Y-9738174D01*
X16063039Y-9938174D02*
X16072563Y-9928650D01*
X16072563Y-9928650D02*
X16091611Y-9900079D01*
X16091611Y-9900079D02*
X16101134Y-9881031D01*
X16101134Y-9881031D02*
X16110658Y-9852460D01*
X16110658Y-9852460D02*
X16120182Y-9804841D01*
X16120182Y-9804841D02*
X16120182Y-9766746D01*
X16120182Y-9766746D02*
X16110658Y-9719127D01*
X16110658Y-9719127D02*
X16101134Y-9690555D01*
X16101134Y-9690555D02*
X16091611Y-9671508D01*
X16091611Y-9671508D02*
X16072563Y-9642936D01*
X16072563Y-9642936D02*
X16063039Y-9633412D01*
M02*
