M48
; DRILL file {KiCad 7.0.11} date Mon Jan 19 17:47:11 2026
; FORMAT={-:-/ absolute / inch / decimal}
; #@! TF.CreationDate,2026-01-19T17:47:11+08:00
; #@! TF.GenerationSoftware,Kicad,Pcbnew,7.0.11
; #@! TF.FileFunction,Plated,1,2,PTH
FMAT,2
INCH
; #@! TA.AperFunction,Plated,PTH,ViaDrill
T1C0.0118
; #@! TA.AperFunction,Plated,PTH,ComponentDrill
T2C0.0276
; #@! TA.AperFunction,Plated,PTH,ComponentDrill
T3C0.0394
%
G90
G05
T1
X5.1799Y-2.7677
X5.1969Y-2.2874
X5.2244Y-2.4567
X5.2638Y-2.7717
X5.5236Y-3.0079
X5.5283Y-3.107
X5.6496Y-2.6457
T2
X4.45Y-3.15
X4.55Y-3.05
X4.65Y-3.15
T3
X4.55Y-2.25
X4.55Y-2.35
X4.55Y-2.65
X4.55Y-2.75
X5.2Y-3.275
X5.5Y-3.275
X6.125Y-3.275
X6.5Y-3.275
X6.7717Y-2.3
X6.7717Y-2.4
X6.7717Y-2.9
X6.7717Y-3.0
M30
