%TF.GenerationSoftware,KiCad,Pcbnew,7.0.11*%
%TF.CreationDate,2026-01-19T17:47:02+08:00*%
%TF.ProjectId,iso_analog,69736f5f-616e-4616-9c6f-672e6b696361,rev?*%
%TF.SameCoordinates,Original*%
%TF.FileFunction,Drillmap*%
%TF.FilePolarity,Positive*%
%FSLAX45Y45*%
G04 Gerber Fmt 4.5, Leading zero omitted, Abs format (unit mm)*
G04 Created by KiCad (PCBNEW 7.0.11) date 2026-01-19 17:47:02*
%MOMM*%
%LPD*%
G01*
G04 APERTURE LIST*
%ADD10C,0.050000*%
%ADD11C,0.200000*%
G04 APERTURE END LIST*
D10*
X14750000Y-6860000D02*
X14850000Y-6860000D01*
X14850000Y-8400000D01*
X14750000Y-8400000D01*
X14750000Y-6860000D01*
X14750000Y-5400000D02*
X14850000Y-5400000D01*
X14850000Y-6560000D01*
X14750000Y-6560000D01*
X14750000Y-5400000D01*
X11100000Y-5300000D02*
X17500000Y-5300000D01*
X17500000Y-8600000D01*
X11100000Y-8600000D01*
X11100000Y-5300000D01*
D11*
X11358277Y-8913984D02*
X11358277Y-8713984D01*
X11358277Y-8713984D02*
X11405896Y-8713984D01*
X11405896Y-8713984D02*
X11434467Y-8723508D01*
X11434467Y-8723508D02*
X11453515Y-8742555D01*
X11453515Y-8742555D02*
X11463039Y-8761603D01*
X11463039Y-8761603D02*
X11472562Y-8799698D01*
X11472562Y-8799698D02*
X11472562Y-8828270D01*
X11472562Y-8828270D02*
X11463039Y-8866365D01*
X11463039Y-8866365D02*
X11453515Y-8885412D01*
X11453515Y-8885412D02*
X11434467Y-8904460D01*
X11434467Y-8904460D02*
X11405896Y-8913984D01*
X11405896Y-8913984D02*
X11358277Y-8913984D01*
X11558277Y-8913984D02*
X11558277Y-8780650D01*
X11558277Y-8818746D02*
X11567801Y-8799698D01*
X11567801Y-8799698D02*
X11577324Y-8790174D01*
X11577324Y-8790174D02*
X11596372Y-8780650D01*
X11596372Y-8780650D02*
X11615420Y-8780650D01*
X11682086Y-8913984D02*
X11682086Y-8780650D01*
X11682086Y-8713984D02*
X11672562Y-8723508D01*
X11672562Y-8723508D02*
X11682086Y-8733031D01*
X11682086Y-8733031D02*
X11691610Y-8723508D01*
X11691610Y-8723508D02*
X11682086Y-8713984D01*
X11682086Y-8713984D02*
X11682086Y-8733031D01*
X11805896Y-8913984D02*
X11786848Y-8904460D01*
X11786848Y-8904460D02*
X11777324Y-8885412D01*
X11777324Y-8885412D02*
X11777324Y-8713984D01*
X11910658Y-8913984D02*
X11891610Y-8904460D01*
X11891610Y-8904460D02*
X11882086Y-8885412D01*
X11882086Y-8885412D02*
X11882086Y-8713984D01*
X12139229Y-8913984D02*
X12139229Y-8713984D01*
X12139229Y-8713984D02*
X12205896Y-8856841D01*
X12205896Y-8856841D02*
X12272562Y-8713984D01*
X12272562Y-8713984D02*
X12272562Y-8913984D01*
X12453515Y-8913984D02*
X12453515Y-8809222D01*
X12453515Y-8809222D02*
X12443991Y-8790174D01*
X12443991Y-8790174D02*
X12424943Y-8780650D01*
X12424943Y-8780650D02*
X12386848Y-8780650D01*
X12386848Y-8780650D02*
X12367801Y-8790174D01*
X12453515Y-8904460D02*
X12434467Y-8913984D01*
X12434467Y-8913984D02*
X12386848Y-8913984D01*
X12386848Y-8913984D02*
X12367801Y-8904460D01*
X12367801Y-8904460D02*
X12358277Y-8885412D01*
X12358277Y-8885412D02*
X12358277Y-8866365D01*
X12358277Y-8866365D02*
X12367801Y-8847317D01*
X12367801Y-8847317D02*
X12386848Y-8837793D01*
X12386848Y-8837793D02*
X12434467Y-8837793D01*
X12434467Y-8837793D02*
X12453515Y-8828270D01*
X12548753Y-8780650D02*
X12548753Y-8980650D01*
X12548753Y-8790174D02*
X12567801Y-8780650D01*
X12567801Y-8780650D02*
X12605896Y-8780650D01*
X12605896Y-8780650D02*
X12624943Y-8790174D01*
X12624943Y-8790174D02*
X12634467Y-8799698D01*
X12634467Y-8799698D02*
X12643991Y-8818746D01*
X12643991Y-8818746D02*
X12643991Y-8875889D01*
X12643991Y-8875889D02*
X12634467Y-8894936D01*
X12634467Y-8894936D02*
X12624943Y-8904460D01*
X12624943Y-8904460D02*
X12605896Y-8913984D01*
X12605896Y-8913984D02*
X12567801Y-8913984D01*
X12567801Y-8913984D02*
X12548753Y-8904460D01*
X12729705Y-8894936D02*
X12739229Y-8904460D01*
X12739229Y-8904460D02*
X12729705Y-8913984D01*
X12729705Y-8913984D02*
X12720182Y-8904460D01*
X12720182Y-8904460D02*
X12729705Y-8894936D01*
X12729705Y-8894936D02*
X12729705Y-8913984D01*
X12729705Y-8790174D02*
X12739229Y-8799698D01*
X12739229Y-8799698D02*
X12729705Y-8809222D01*
X12729705Y-8809222D02*
X12720182Y-8799698D01*
X12720182Y-8799698D02*
X12729705Y-8790174D01*
X12729705Y-8790174D02*
X12729705Y-8809222D01*
M02*
